<svg xmlns="http://www.w3.org/2000/svg" xmlns:xlink="http://www.w3.org/1999/xlink" width="1920" zoomAndPan="magnify" viewBox="0 0 1440 809.999993" height="1080" preserveAspectRatio="xMidYMid meet" version="1.0"><defs><clipPath id="a7df8c7b86"><path d="M 857.695312 263.332031 L 1373.847656 263.332031 L 1373.847656 502.617188 L 857.695312 502.617188 Z M 857.695312 263.332031 " clip-rule="nonzero"/></clipPath><clipPath id="25e28045c5"><path d="M 65.640625 263.332031 L 581.742188 263.332031 L 581.742188 502.617188 L 65.640625 502.617188 Z M 65.640625 263.332031 " clip-rule="nonzero"/></clipPath></defs><g clip-path="url(#a7df8c7b86)"><path fill="#000000" d="M 976.125 349.789062 L 979.738281 346.210938 L 1045.890625 280.941406 C 1045.898438 280.933594 1045.90625 280.925781 1045.90625 280.925781 C 1047.246094 279.613281 1048.667969 278.378906 1050.164062 277.242188 C 1051.699219 276.078125 1053.285156 274.996094 1054.921875 273.980469 C 1058.296875 271.902344 1061.832031 270.105469 1065.496094 268.617188 C 1069.15625 267.109375 1072.945312 265.902344 1076.792969 265.003906 C 1078.671875 264.570312 1080.566406 264.234375 1082.46875 263.988281 C 1084.328125 263.75 1086.195312 263.621094 1088.082031 263.621094 L 1248.761719 263.621094 C 1256.675781 263.621094 1264.429688 265.761719 1271.214844 269.824219 C 1278 273.886719 1283.570312 279.710938 1287.296875 286.671875 L 1319.875 347.363281 L 1344.488281 347.363281 C 1352.269531 347.363281 1359.734375 350.457031 1365.242188 355.957031 C 1370.730469 361.464844 1373.832031 368.9375 1373.832031 376.714844 L 1373.628906 471.070312 L 1321.949219 471.070312 C 1319.410156 477.046875 1315.726562 482.542969 1311.046875 487.214844 C 1301.46875 496.792969 1288.46875 502.175781 1274.925781 502.175781 C 1261.375 502.175781 1248.382812 496.792969 1238.796875 487.214844 C 1234.117188 482.542969 1230.441406 477.046875 1227.90625 471.070312 L 1022.820312 471.070312 C 1020.28125 477.046875 1016.609375 482.542969 1011.929688 487.214844 C 1002.351562 496.792969 989.351562 502.175781 975.800781 502.175781 C 962.261719 502.175781 949.246094 496.792969 939.679688 487.214844 C 935 482.542969 931.324219 477.046875 928.785156 471.070312 L 857.707031 471.070312 L 857.707031 412.648438 C 857.707031 404.746094 860.253906 397.0625 864.976562 390.710938 C 869.691406 384.375 876.328125 379.730469 883.898438 377.464844 Z M 940.746094 451.09375 C 940.746094 441.800781 944.445312 432.882812 951.019531 426.308594 C 957.59375 419.734375 966.511719 416.035156 975.800781 416.035156 C 985.09375 416.035156 994.011719 419.734375 1000.585938 426.308594 C 1007.160156 432.882812 1010.863281 441.800781 1010.863281 451.09375 C 1010.863281 460.390625 1007.160156 469.316406 1000.585938 475.890625 C 994.011719 482.464844 985.09375 486.148438 975.800781 486.148438 C 966.511719 486.148438 957.59375 482.464844 951.019531 475.890625 C 944.445312 469.316406 940.746094 460.390625 940.746094 451.09375 Z M 1239.863281 451.09375 C 1239.863281 441.800781 1243.5625 432.882812 1250.128906 426.308594 C 1256.703125 419.734375 1265.628906 416.035156 1274.925781 416.035156 C 1284.222656 416.035156 1293.148438 419.734375 1299.714844 426.308594 C 1306.289062 432.882812 1309.988281 441.800781 1309.988281 451.09375 C 1309.988281 460.390625 1306.289062 469.316406 1299.714844 475.890625 C 1293.148438 482.464844 1284.222656 486.148438 1274.925781 486.148438 C 1265.628906 486.148438 1256.703125 482.464844 1250.128906 475.890625 C 1243.5625 469.316406 1239.863281 460.390625 1239.863281 451.09375 Z M 1158.96875 363.394531 L 1158.96875 455.042969 L 1026.734375 455.042969 C 1026.839844 453.730469 1026.890625 452.417969 1026.890625 451.09375 C 1026.890625 437.550781 1021.507812 424.554688 1011.929688 414.96875 C 1002.351562 405.398438 989.351562 400.003906 975.800781 400.003906 C 962.261719 400.003906 949.246094 405.398438 939.679688 414.96875 C 930.097656 424.554688 924.714844 437.550781 924.714844 451.09375 C 924.714844 452.417969 924.769531 453.730469 924.863281 455.042969 L 873.738281 455.042969 L 873.738281 412.648438 C 873.738281 408.191406 875.171875 403.855469 877.835938 400.289062 C 880.496094 396.71875 884.230469 394.085938 888.496094 392.804688 L 986.550781 363.394531 Z M 1308.578125 412.660156 C 1299.292969 404.535156 1287.332031 400.003906 1274.925781 400.003906 C 1261.375 400.003906 1248.382812 405.398438 1238.796875 414.96875 C 1229.21875 424.554688 1223.832031 437.550781 1223.832031 451.09375 C 1223.832031 452.417969 1223.886719 453.730469 1223.984375 455.042969 L 1164.308594 455.042969 L 1164.308594 363.394531 L 1308.578125 363.394531 Z M 1313.917969 363.394531 L 1344.488281 363.394531 C 1348.015625 363.394531 1351.398438 364.792969 1353.902344 367.296875 C 1356.394531 369.789062 1357.796875 373.175781 1357.796875 376.699219 L 1357.644531 455.042969 L 1325.867188 455.042969 C 1325.964844 453.730469 1326.019531 452.417969 1326.019531 451.09375 C 1326.019531 438.96875 1321.699219 427.285156 1313.917969 418.097656 Z M 1121.664062 372.742188 L 1147.316406 372.742188 L 1147.316406 378.089844 L 1121.664062 378.089844 Z M 1271.277344 372.742188 L 1296.929688 372.742188 L 1296.929688 378.089844 L 1271.277344 378.089844 Z M 1158.96875 279.648438 L 1158.96875 347.363281 L 1001.398438 347.363281 L 1057.144531 292.355469 C 1058.007812 291.507812 1058.914062 290.722656 1059.882812 289.992188 C 1060.996094 289.148438 1062.132812 288.363281 1063.320312 287.621094 C 1065.964844 286.007812 1068.714844 284.609375 1071.578125 283.445312 C 1074.433594 282.253906 1077.386719 281.320312 1080.398438 280.625 C 1081.753906 280.300781 1083.128906 280.070312 1084.515625 279.886719 C 1085.710938 279.734375 1086.917969 279.648438 1088.125 279.648438 Z M 1164.308594 279.648438 L 1248.761719 279.648438 C 1253.777344 279.648438 1258.695312 281.003906 1262.984375 283.578125 C 1267.285156 286.152344 1270.8125 289.832031 1273.179688 294.257812 L 1301.671875 347.363281 L 1164.308594 347.363281 L 1164.308594 279.648438 " fill-opacity="1" fill-rule="evenodd"/></g><g clip-path="url(#25e28045c5)"><path fill="#000000" d="M 463.3125 349.789062 L 459.699219 346.210938 L 393.546875 280.941406 C 393.539062 280.933594 393.527344 280.925781 393.527344 280.925781 C 392.1875 279.613281 390.769531 278.378906 389.273438 277.242188 C 387.738281 276.078125 386.152344 274.996094 384.511719 273.980469 C 381.136719 271.902344 377.605469 270.105469 373.9375 268.617188 C 370.28125 267.109375 366.492188 265.902344 362.640625 265.003906 C 360.765625 264.570312 358.871094 264.234375 356.96875 263.988281 C 355.109375 263.75 353.238281 263.621094 351.355469 263.621094 L 190.671875 263.621094 C 182.761719 263.621094 175.003906 265.761719 168.21875 269.824219 C 161.433594 273.886719 155.867188 279.710938 152.136719 286.671875 L 119.558594 347.363281 L 94.949219 347.363281 C 87.167969 347.363281 79.703125 350.457031 74.195312 355.957031 C 68.703125 361.464844 65.601562 368.9375 65.601562 376.714844 L 65.804688 471.070312 L 117.488281 471.070312 C 120.027344 477.046875 123.710938 482.542969 128.390625 487.214844 C 137.96875 496.792969 150.964844 502.175781 164.511719 502.175781 C 178.0625 502.175781 191.050781 496.792969 200.640625 487.214844 C 205.320312 482.542969 208.992188 477.046875 211.53125 471.070312 L 416.617188 471.070312 C 419.152344 477.046875 422.828125 482.542969 427.507812 487.214844 C 437.085938 496.792969 450.085938 502.175781 463.636719 502.175781 C 477.171875 502.175781 490.1875 496.792969 499.757812 487.214844 C 504.4375 482.542969 508.113281 477.046875 510.648438 471.070312 L 581.730469 471.070312 L 581.730469 412.648438 C 581.730469 404.746094 579.183594 397.0625 574.457031 390.710938 C 569.746094 384.375 563.109375 379.730469 555.539062 377.464844 Z M 498.691406 451.09375 C 498.691406 441.800781 494.992188 432.882812 488.417969 426.308594 C 481.84375 419.734375 472.925781 416.035156 463.636719 416.035156 C 454.339844 416.035156 445.421875 419.734375 438.847656 426.308594 C 432.273438 432.882812 428.574219 441.800781 428.574219 451.09375 C 428.574219 460.390625 432.273438 469.316406 438.847656 475.890625 C 445.421875 482.464844 454.339844 486.148438 463.636719 486.148438 C 472.925781 486.148438 481.84375 482.464844 488.417969 475.890625 C 494.992188 469.316406 498.691406 460.390625 498.691406 451.09375 Z M 199.574219 451.09375 C 199.574219 441.800781 195.871094 432.882812 189.308594 426.308594 C 182.734375 419.734375 173.808594 416.035156 164.511719 416.035156 C 155.214844 416.035156 146.285156 419.734375 139.722656 426.308594 C 133.148438 432.882812 129.445312 441.800781 129.445312 451.09375 C 129.445312 460.390625 133.148438 469.316406 139.722656 475.890625 C 146.285156 482.464844 155.214844 486.148438 164.511719 486.148438 C 173.808594 486.148438 182.734375 482.464844 189.308594 475.890625 C 195.871094 469.316406 199.574219 460.390625 199.574219 451.09375 Z M 280.46875 363.394531 L 280.46875 455.042969 L 412.703125 455.042969 C 412.597656 453.730469 412.546875 452.417969 412.546875 451.09375 C 412.546875 437.550781 417.929688 424.554688 427.507812 414.96875 C 437.085938 405.398438 450.085938 400.003906 463.636719 400.003906 C 477.171875 400.003906 490.1875 405.398438 499.757812 414.96875 C 509.335938 424.554688 514.722656 437.550781 514.722656 451.09375 C 514.722656 452.417969 514.667969 453.730469 514.570312 455.042969 L 565.699219 455.042969 L 565.699219 412.648438 C 565.699219 408.191406 564.261719 403.855469 561.601562 400.289062 C 558.941406 396.71875 555.203125 394.085938 550.9375 392.804688 L 452.886719 363.394531 Z M 130.855469 412.660156 C 140.144531 404.535156 152.101562 400.003906 164.511719 400.003906 C 178.0625 400.003906 191.050781 405.398438 200.640625 414.96875 C 210.21875 424.554688 215.601562 437.550781 215.601562 451.09375 C 215.601562 452.417969 215.550781 453.730469 215.453125 455.042969 L 275.128906 455.042969 L 275.128906 363.394531 L 130.855469 363.394531 Z M 125.515625 363.394531 L 94.949219 363.394531 C 91.421875 363.394531 88.039062 364.792969 85.535156 367.296875 C 83.042969 369.789062 81.640625 373.175781 81.640625 376.699219 L 81.789062 455.042969 L 113.566406 455.042969 C 113.46875 453.730469 113.417969 452.417969 113.417969 451.09375 C 113.417969 438.96875 117.734375 427.285156 125.515625 418.097656 Z M 317.769531 372.742188 L 292.117188 372.742188 L 292.117188 378.089844 L 317.769531 378.089844 Z M 168.160156 372.742188 L 142.507812 372.742188 L 142.507812 378.089844 L 168.160156 378.089844 Z M 280.46875 279.648438 L 280.46875 347.363281 L 438.039062 347.363281 L 382.292969 292.355469 C 381.429688 291.507812 380.523438 290.722656 379.550781 289.992188 C 378.441406 289.148438 377.304688 288.363281 376.117188 287.621094 C 373.472656 286.007812 370.722656 284.609375 367.859375 283.445312 C 365.003906 282.253906 362.050781 281.320312 359.039062 280.625 C 357.679688 280.300781 356.304688 280.070312 354.921875 279.886719 C 353.722656 279.734375 352.515625 279.648438 351.308594 279.648438 Z M 275.128906 279.648438 L 190.671875 279.648438 C 185.660156 279.648438 180.742188 281.003906 176.449219 283.578125 C 172.148438 286.152344 168.625 289.832031 166.253906 294.257812 L 137.765625 347.363281 L 275.128906 347.363281 L 275.128906 279.648438 " fill-opacity="1" fill-rule="evenodd"/></g><path fill="#000000" d="M 738.851562 404.617188 L 806.597656 336.875 C 812.832031 330.640625 812.84375 320.515625 806.609375 314.277344 C 800.382812 308.054688 790.253906 308.046875 784.011719 314.289062 L 716.269531 382.035156 L 648.523438 314.289062 C 642.289062 308.054688 632.164062 308.042969 625.929688 314.277344 C 619.703125 320.503906 619.695312 330.632812 625.9375 336.875 L 693.683594 404.617188 L 625.9375 472.363281 C 619.703125 478.597656 619.691406 488.722656 625.929688 494.957031 C 632.152344 501.183594 642.28125 501.191406 648.523438 494.949219 L 716.269531 427.203125 L 784.011719 494.949219 C 790.246094 501.183594 800.371094 501.195312 806.609375 494.957031 C 812.832031 488.734375 812.839844 478.605469 806.597656 472.363281 Z M 738.851562 404.617188 " fill-opacity="1" fill-rule="evenodd"/></svg>