<svg xmlns="http://www.w3.org/2000/svg" xmlns:xlink="http://www.w3.org/1999/xlink" width="1000" zoomAndPan="magnify" viewBox="0 0 750 749.999995" height="1000" preserveAspectRatio="xMidYMid meet" version="1.0"><defs><clipPath id="6af58943d1"><path d="M 3.984375 50.648438 L 745.601562 50.648438 L 745.601562 708 L 3.984375 708 Z M 3.984375 50.648438 " clip-rule="nonzero"/></clipPath></defs><g clip-path="url(#6af58943d1)"><path fill="#000000" d="M 374.6875 707.773438 L 366.828125 702.433594 C 365.941406 701.839844 275.636719 640.125 186.667969 554.820312 C 134.175781 504.378906 92.210938 455.71875 61.960938 410.023438 C 23.554688 351.570312 3.984375 297.421875 3.984375 249.355469 C 3.984375 139.871094 93.101562 50.707031 202.53125 50.707031 C 243.164062 50.707031 282.457031 63.167969 315.96875 86.90625 C 340.285156 104.113281 360.15625 126.070312 374.6875 151.289062 C 389.21875 125.921875 409.089844 103.96875 433.410156 86.90625 C 466.921875 63.167969 506.21875 50.707031 546.84375 50.707031 C 656.277344 50.707031 745.398438 139.871094 745.398438 249.355469 L 745.398438 249.5 C 744.949219 297.277344 725.230469 350.976562 686.675781 409.28125 C 656.425781 454.976562 614.613281 503.636719 562.117188 554.226562 C 473.296875 639.828125 383.4375 701.839844 382.546875 702.433594 Z M 202.53125 78.449219 C 108.371094 78.449219 31.710938 155.148438 31.710938 249.355469 C 31.710938 291.933594 49.65625 340.742188 85.09375 394.445312 C 114.007812 438.363281 154.636719 485.539062 205.644531 534.496094 C 277.863281 603.777344 351.113281 657.332031 374.6875 673.949219 C 398.265625 657.1875 471.070312 603.332031 543.136719 533.902344 C 593.996094 484.796875 634.480469 437.769531 663.542969 393.851562 C 698.984375 340.152344 717.21875 291.636719 717.515625 249.355469 C 717.515625 155.148438 640.859375 78.597656 546.699219 78.597656 C 476.859375 78.597656 412.945312 122.808594 387.441406 188.675781 L 374.542969 222.207031 L 361.785156 188.675781 C 336.285156 122.808594 272.371094 78.449219 202.53125 78.449219 Z M 202.53125 78.449219 " fill-opacity="1" fill-rule="nonzero"/></g></svg>