<svg xmlns="http://www.w3.org/2000/svg" xmlns:xlink="http://www.w3.org/1999/xlink" width="1920" zoomAndPan="magnify" viewBox="0 0 1440 809.999993" height="1080" preserveAspectRatio="xMidYMid meet" version="1.0"><defs><clipPath id="b0ef876dcc"><path d="M 1073 210 L 1203.695312 210 L 1203.695312 291 L 1073 291 Z M 1073 210 " clip-rule="nonzero"/></clipPath><clipPath id="0a6c5586b2"><path d="M 250.179688 431.277344 L 256.957031 431.277344 L 256.957031 591.308594 L 250.179688 591.308594 Z M 250.179688 431.277344 " clip-rule="nonzero"/></clipPath></defs><path fill="#000000" d="M 858.058594 477.191406 L 583.011719 477.191406 C 577.902344 477.210938 572.804688 476.980469 567.722656 476.496094 C 562.636719 476.011719 557.585938 475.277344 552.574219 474.292969 C 547.5625 473.308594 542.609375 472.078125 537.71875 470.601562 C 532.828125 469.125 528.023438 467.414062 523.304688 465.460938 C 518.582031 463.507812 513.972656 461.324219 509.46875 458.914062 C 504.964844 456.503906 500.589844 453.878906 496.347656 451.035156 C 492.101562 448.191406 488.011719 445.144531 484.070312 441.894531 C 480.128906 438.644531 476.355469 435.207031 472.757812 431.582031 L 388.105469 347.011719 C 384.089844 342.976562 379.832031 339.214844 375.335938 335.726562 C 370.839844 332.234375 366.140625 329.046875 361.234375 326.160156 C 356.328125 323.269531 351.261719 320.707031 346.027344 318.46875 C 340.792969 316.230469 335.4375 314.335938 329.960938 312.78125 C 329.011719 312.511719 328.117188 312.109375 327.285156 311.578125 C 326.453125 311.046875 325.714844 310.40625 325.070312 309.65625 C 324.425781 308.90625 323.902344 308.078125 323.503906 307.175781 C 323.101562 306.269531 322.839844 305.328125 322.71875 304.347656 C 322.597656 303.367188 322.617188 302.390625 322.78125 301.414062 C 322.945312 300.441406 323.25 299.511719 323.6875 298.625 C 324.125 297.738281 324.683594 296.9375 325.359375 296.214844 C 326.035156 295.492188 326.800781 294.882812 327.65625 294.386719 C 333.078125 291.265625 337.71875 287.238281 341.570312 282.304688 C 342.855469 280.550781 343.980469 278.699219 344.941406 276.75 L 353.359375 261.324219 L 439.128906 102.695312 C 440.089844 100.917969 441.109375 99.175781 442.191406 97.46875 C 443.269531 95.757812 444.402344 94.089844 445.59375 92.457031 C 446.785156 90.824219 448.03125 89.234375 449.328125 87.6875 C 450.625 86.140625 451.972656 84.636719 453.375 83.179688 C 454.773438 81.722656 456.21875 80.3125 457.710938 78.953125 C 459.207031 77.589844 460.742188 76.28125 462.324219 75.027344 C 463.90625 73.769531 465.527344 72.566406 467.191406 71.417969 C 468.851562 70.269531 470.550781 69.179688 472.285156 68.144531 C 474.023438 67.109375 475.789062 66.136719 477.589844 65.222656 C 479.390625 64.304688 481.222656 63.453125 483.082031 62.660156 C 484.9375 61.867188 486.820312 61.140625 488.730469 60.472656 C 490.636719 59.808594 492.5625 59.207031 494.511719 58.671875 C 496.460938 58.132812 498.421875 57.664062 500.402344 57.261719 C 502.382812 56.855469 504.371094 56.519531 506.375 56.246094 C 508.375 55.976562 510.386719 55.773438 512.402344 55.640625 C 514.417969 55.503906 516.433594 55.433594 518.457031 55.433594 L 922.304688 55.433594 C 924.324219 55.4375 926.34375 55.503906 928.359375 55.640625 C 930.371094 55.773438 932.382812 55.976562 934.382812 56.25 C 936.382812 56.519531 938.375 56.855469 940.355469 57.261719 C 942.332031 57.664062 944.296875 58.136719 946.242188 58.671875 C 948.191406 59.207031 950.117188 59.808594 952.027344 60.472656 C 953.933594 61.140625 955.816406 61.867188 957.671875 62.660156 C 959.53125 63.453125 961.359375 64.304688 963.160156 65.21875 C 964.964844 66.132812 966.730469 67.109375 968.464844 68.140625 C 970.203125 69.175781 971.902344 70.265625 973.5625 71.414062 C 975.226562 72.5625 976.847656 73.761719 978.429688 75.019531 C 980.011719 76.277344 981.546875 77.585938 983.042969 78.945312 C 984.535156 80.304688 985.980469 81.710938 987.378906 83.167969 C 988.78125 84.625 990.128906 86.128906 991.425781 87.675781 C 992.726562 89.222656 993.96875 90.8125 995.160156 92.441406 C 996.351562 94.074219 997.488281 95.742188 998.566406 97.449219 C 999.648438 99.15625 1000.667969 100.898438 1001.628906 102.675781 L 1095.675781 276.539062 C 1096.8125 278.644531 1098.097656 280.660156 1099.53125 282.578125 C 1103.234375 287.496094 1107.785156 291.433594 1113.183594 294.386719 C 1114.042969 294.875 1114.808594 295.476562 1115.488281 296.191406 C 1116.167969 296.90625 1116.730469 297.703125 1117.175781 298.582031 C 1117.621094 299.460938 1117.933594 300.386719 1118.105469 301.359375 C 1118.28125 302.328125 1118.3125 303.304688 1118.199219 304.28125 C 1118.085938 305.261719 1117.835938 306.203125 1117.445312 307.109375 C 1117.054688 308.015625 1116.542969 308.847656 1115.910156 309.601562 C 1115.277344 310.359375 1114.546875 311.007812 1113.722656 311.546875 C 1112.898438 312.089844 1112.015625 312.5 1111.070312 312.78125 C 1105.597656 314.351562 1100.246094 316.261719 1095.015625 318.507812 C 1089.785156 320.753906 1084.714844 323.320312 1079.808594 326.207031 C 1074.902344 329.09375 1070.195312 332.28125 1065.691406 335.761719 C 1061.1875 339.242188 1056.917969 342.992188 1052.886719 347.011719 L 968.203125 431.582031 C 964.59375 435.1875 960.816406 438.605469 956.871094 441.839844 C 952.925781 445.070312 948.832031 448.105469 944.589844 450.9375 C 940.347656 453.765625 935.976562 456.386719 931.476562 458.789062 C 926.976562 461.191406 922.371094 463.367188 917.660156 465.320312 C 912.945312 467.269531 908.148438 468.988281 903.269531 470.46875 C 898.386719 471.949219 893.445312 473.1875 888.441406 474.183594 C 883.441406 475.179688 878.402344 475.929688 873.324219 476.433594 C 868.25 476.933594 863.160156 477.1875 858.058594 477.191406 Z M 353.1875 299.695312 C 362.390625 303.550781 371.128906 308.265625 379.402344 313.839844 C 387.679688 319.410156 395.335938 325.734375 402.371094 332.808594 L 487.023438 417.378906 C 490.15625 420.535156 493.4375 423.53125 496.867188 426.359375 C 500.296875 429.191406 503.859375 431.847656 507.554688 434.324219 C 511.25 436.804688 515.054688 439.09375 518.976562 441.195312 C 522.898438 443.292969 526.914062 445.195312 531.023438 446.898438 C 535.132812 448.597656 539.316406 450.09375 543.574219 451.378906 C 547.832031 452.664062 552.144531 453.738281 556.507812 454.597656 C 560.875 455.457031 565.269531 456.097656 569.699219 456.519531 C 574.125 456.941406 578.5625 457.144531 583.011719 457.125 L 858.058594 457.125 C 862.5 457.121094 866.925781 456.902344 871.34375 456.464844 C 875.761719 456.023438 880.148438 455.371094 884.5 454.503906 C 888.855469 453.636719 893.15625 452.558594 897.402344 451.265625 C 901.648438 449.976562 905.824219 448.484375 909.925781 446.785156 C 914.027344 445.085938 918.035156 443.191406 921.949219 441.097656 C 925.863281 439.007812 929.667969 436.726562 933.359375 434.261719 C 937.050781 431.796875 940.613281 429.160156 944.046875 426.34375 C 947.480469 423.53125 950.765625 420.554688 953.910156 417.417969 L 1038.621094 332.847656 C 1045.667969 325.820312 1053.320312 319.527344 1061.582031 313.972656 C 1069.839844 308.417969 1078.554688 303.703125 1087.722656 299.824219 C 1086.183594 298.183594 1084.742188 296.460938 1083.394531 294.660156 C 1081.363281 291.957031 1079.550781 289.117188 1077.945312 286.140625 L 983.921875 112.289062 C 982.425781 109.527344 980.75 106.878906 978.894531 104.339844 C 977.042969 101.804688 975.027344 99.402344 972.851562 97.136719 C 970.675781 94.871094 968.359375 92.761719 965.898438 90.808594 C 963.4375 88.851562 960.859375 87.074219 958.160156 85.464844 C 955.460938 83.855469 952.667969 82.4375 949.777344 81.207031 C 946.886719 79.972656 943.929688 78.941406 940.898438 78.105469 C 937.871094 77.273438 934.800781 76.644531 931.6875 76.222656 C 928.574219 75.804688 925.445312 75.59375 922.304688 75.589844 L 518.464844 75.589844 C 515.324219 75.59375 512.195312 75.800781 509.082031 76.222656 C 505.96875 76.644531 502.894531 77.273438 499.867188 78.105469 C 496.835938 78.941406 493.875 79.972656 490.984375 81.203125 C 488.09375 82.4375 485.300781 83.855469 482.601562 85.464844 C 479.902344 87.074219 477.320312 88.855469 474.863281 90.808594 C 472.402344 92.765625 470.082031 94.875 467.90625 97.140625 C 465.730469 99.410156 463.714844 101.8125 461.863281 104.347656 C 460.011719 106.886719 458.335938 109.535156 456.839844 112.300781 L 362.832031 286.011719 C 361.347656 289 359.609375 291.832031 357.617188 294.507812 C 356.207031 296.320312 354.738281 298.023438 353.1875 299.695312 Z M 353.1875 299.695312 " fill-opacity="1" fill-rule="nonzero"/><path fill="#000000" d="M 354.660156 290.039062 C 354.417969 290.039062 354.183594 290.039062 353.953125 290.039062 L 269.28125 284.097656 C 267.664062 283.988281 266.0625 283.765625 264.476562 283.429688 C 262.890625 283.09375 261.335938 282.648438 259.8125 282.09375 C 258.289062 281.539062 256.8125 280.882812 255.382812 280.117188 C 253.953125 279.355469 252.582031 278.496094 251.273438 277.539062 C 249.964844 276.582031 248.730469 275.539062 247.566406 274.40625 C 246.40625 273.277344 245.328125 272.070312 244.339844 270.785156 C 243.347656 269.503906 242.449219 268.15625 241.648438 266.746094 C 240.847656 265.339844 240.148438 263.878906 239.554688 262.371094 C 238.960938 260.863281 238.472656 259.320312 238.09375 257.746094 C 237.71875 256.167969 237.453125 254.574219 237.300781 252.960938 C 237.144531 251.347656 237.109375 249.730469 237.183594 248.109375 C 237.257812 246.492188 237.449219 244.882812 237.75 243.292969 C 238.050781 241.699219 238.464844 240.136719 238.988281 238.601562 C 239.511719 237.066406 240.136719 235.574219 240.871094 234.128906 C 241.605469 232.683594 242.433594 231.296875 243.363281 229.96875 C 244.292969 228.640625 245.308594 227.382812 246.417969 226.199219 C 247.894531 224.597656 249.511719 223.148438 251.265625 221.859375 C 253.019531 220.566406 254.878906 219.449219 256.84375 218.511719 C 258.8125 217.574219 260.847656 216.832031 262.957031 216.285156 C 265.066406 215.738281 267.207031 215.394531 269.382812 215.253906 L 332.429688 210.824219 C 334.675781 210.65625 336.921875 210.722656 339.15625 211.023438 C 341.390625 211.324219 343.574219 211.851562 345.699219 212.605469 C 347.824219 213.359375 349.851562 214.324219 351.773438 215.5 C 353.699219 216.675781 355.484375 218.035156 357.125 219.582031 C 358.765625 221.125 360.234375 222.816406 361.53125 224.660156 C 362.828125 226.5 363.921875 228.457031 364.820312 230.523438 C 365.714844 232.589844 366.394531 234.722656 366.851562 236.929688 C 367.3125 239.132812 367.542969 241.363281 367.546875 243.617188 L 367.546875 274.824219 C 367.542969 276.546875 367.128906 278.160156 366.296875 279.667969 L 363.476562 284.804688 C 363.042969 285.59375 362.515625 286.316406 361.886719 286.964844 C 361.261719 287.613281 360.558594 288.167969 359.785156 288.628906 C 359.007812 289.089844 358.1875 289.4375 357.316406 289.679688 C 356.445312 289.917969 355.558594 290.039062 354.660156 290.039062 Z M 357.476562 274.835938 Z M 334.703125 230.878906 C 334.402344 230.878906 334.109375 230.878906 333.808594 230.878906 L 270.699219 235.308594 C 268.871094 235.421875 267.132812 235.871094 265.476562 236.664062 C 263.824219 237.453125 262.382812 238.527344 261.144531 239.878906 C 259.90625 241.207031 258.953125 242.714844 258.289062 244.40625 C 257.625 246.097656 257.296875 247.851562 257.300781 249.667969 C 257.304688 250.566406 257.394531 251.460938 257.566406 252.34375 C 257.738281 253.230469 257.992188 254.089844 258.324219 254.925781 C 258.65625 255.765625 259.066406 256.5625 259.546875 257.324219 C 260.03125 258.085938 260.582031 258.792969 261.195312 259.453125 C 261.8125 260.109375 262.484375 260.707031 263.210938 261.238281 C 263.9375 261.769531 264.707031 262.230469 265.519531 262.621094 C 266.332031 263.007812 267.175781 263.316406 268.046875 263.546875 C 268.917969 263.78125 269.800781 263.925781 270.699219 263.992188 L 347.410156 269.367188 L 347.410156 243.617188 C 347.410156 242.78125 347.328125 241.953125 347.164062 241.132812 C 347.003906 240.316406 346.761719 239.519531 346.441406 238.75 C 346.125 237.976562 345.734375 237.242188 345.269531 236.550781 C 344.804688 235.855469 344.28125 235.210938 343.691406 234.621094 C 343.101562 234.027344 342.457031 233.5 341.765625 233.035156 C 341.070312 232.570312 340.339844 232.179688 339.566406 231.859375 C 338.796875 231.535156 338.003906 231.292969 337.183594 231.128906 C 336.367188 230.964844 335.539062 230.882812 334.703125 230.878906 Z M 334.703125 230.878906 " fill-opacity="1" fill-rule="nonzero"/><g clip-path="url(#b0ef876dcc)"><path fill="#000000" d="M 1086.101562 290.039062 C 1085.203125 290.039062 1084.320312 289.921875 1083.453125 289.683594 C 1082.582031 289.445312 1081.761719 289.101562 1080.988281 288.644531 C 1080.214844 288.1875 1079.511719 287.636719 1078.886719 286.992188 C 1078.257812 286.347656 1077.726562 285.628906 1077.292969 284.84375 L 1074.683594 280.113281 C 1073.84375 278.59375 1073.425781 276.972656 1073.425781 275.238281 L 1073.425781 243.617188 C 1073.425781 242.492188 1073.484375 241.371094 1073.597656 240.253906 C 1073.710938 239.136719 1073.882812 238.027344 1074.113281 236.925781 C 1074.339844 235.824219 1074.625 234.742188 1074.964844 233.667969 C 1075.304688 232.597656 1075.699219 231.546875 1076.144531 230.515625 C 1076.59375 229.484375 1077.09375 228.480469 1077.644531 227.5 C 1078.195312 226.523438 1078.792969 225.574219 1079.441406 224.65625 C 1080.089844 223.738281 1080.78125 222.855469 1081.519531 222.007812 C 1082.257812 221.160156 1083.039062 220.355469 1083.859375 219.585938 C 1084.679688 218.820312 1085.539062 218.097656 1086.433594 217.417969 C 1087.328125 216.738281 1088.257812 216.105469 1089.21875 215.523438 C 1090.175781 214.941406 1091.164062 214.40625 1092.179688 213.921875 C 1093.195312 213.441406 1094.230469 213.011719 1095.289062 212.636719 C 1096.347656 212.257812 1097.421875 211.9375 1098.515625 211.671875 C 1099.605469 211.40625 1100.710938 211.195312 1101.824219 211.042969 C 1102.9375 210.890625 1104.054688 210.792969 1105.175781 210.757812 C 1106.300781 210.71875 1107.421875 210.738281 1108.542969 210.8125 L 1171.679688 215.265625 C 1172.753906 215.34375 1173.824219 215.46875 1174.886719 215.648438 C 1175.949219 215.828125 1177 216.054688 1178.042969 216.332031 C 1179.085938 216.605469 1180.113281 216.933594 1181.121094 217.304688 C 1182.132812 217.675781 1183.125 218.097656 1184.097656 218.5625 C 1185.070312 219.027344 1186.015625 219.539062 1186.941406 220.09375 C 1187.867188 220.648438 1188.761719 221.242188 1189.628906 221.882812 C 1190.5 222.519531 1191.335938 223.199219 1192.140625 223.914062 C 1192.945312 224.632812 1193.714844 225.386719 1194.449219 226.175781 C 1195.183594 226.964844 1195.878906 227.785156 1196.535156 228.640625 C 1197.191406 229.492188 1197.808594 230.375 1198.382812 231.289062 C 1198.957031 232.199219 1199.488281 233.136719 1199.976562 234.097656 C 1200.460938 235.058594 1200.902344 236.042969 1201.296875 237.042969 C 1201.691406 238.046875 1202.039062 239.066406 1202.339844 240.101562 C 1202.636719 241.136719 1202.886719 242.183594 1203.089844 243.242188 C 1203.289062 244.300781 1203.441406 245.367188 1203.542969 246.441406 C 1203.644531 247.511719 1203.695312 248.589844 1203.695312 249.667969 C 1203.695312 250.742188 1203.640625 251.816406 1203.539062 252.890625 C 1203.4375 253.964844 1203.28125 255.027344 1203.082031 256.085938 C 1202.878906 257.144531 1202.625 258.191406 1202.328125 259.226562 C 1202.027344 260.261719 1201.679688 261.277344 1201.28125 262.28125 C 1200.886719 263.28125 1200.445312 264.265625 1199.960938 265.226562 C 1199.472656 266.183594 1198.941406 267.121094 1198.367188 268.03125 C 1197.792969 268.945312 1197.175781 269.828125 1196.519531 270.679688 C 1195.863281 271.535156 1195.164062 272.355469 1194.433594 273.144531 C 1193.699219 273.933594 1192.929688 274.683594 1192.125 275.402344 C 1191.320312 276.117188 1190.484375 276.796875 1189.617188 277.433594 C 1188.75 278.074219 1187.855469 278.667969 1186.929688 279.222656 C 1186.007812 279.777344 1185.058594 280.289062 1184.089844 280.757812 C 1183.117188 281.222656 1182.125 281.640625 1181.117188 282.015625 C 1180.105469 282.390625 1179.082031 282.714844 1178.039062 282.992188 C 1177 283.269531 1175.945312 283.5 1174.886719 283.679688 C 1173.824219 283.859375 1172.753906 283.988281 1171.679688 284.066406 L 1086.804688 290.007812 C 1086.566406 290.027344 1086.34375 290.039062 1086.101562 290.039062 Z M 1106.238281 230.878906 C 1105.402344 230.882812 1104.578125 230.964844 1103.757812 231.132812 C 1102.941406 231.296875 1102.144531 231.539062 1101.375 231.859375 C 1100.605469 232.179688 1099.875 232.574219 1099.179688 233.039062 C 1098.488281 233.503906 1097.847656 234.03125 1097.257812 234.625 C 1096.667969 235.214844 1096.144531 235.859375 1095.679688 236.550781 C 1095.21875 237.246094 1094.828125 237.980469 1094.507812 238.75 C 1094.1875 239.523438 1093.949219 240.316406 1093.785156 241.136719 C 1093.625 241.953125 1093.542969 242.78125 1093.542969 243.617188 L 1093.542969 269.347656 L 1170.261719 263.992188 C 1171.15625 263.925781 1172.039062 263.773438 1172.90625 263.542969 C 1173.773438 263.308594 1174.609375 262.996094 1175.417969 262.605469 C 1176.226562 262.21875 1176.996094 261.753906 1177.714844 261.222656 C 1178.4375 260.6875 1179.105469 260.09375 1179.71875 259.433594 C 1180.328125 258.777344 1180.871094 258.066406 1181.351562 257.308594 C 1181.828125 256.546875 1182.234375 255.75 1182.5625 254.914062 C 1182.890625 254.078125 1183.136719 253.21875 1183.304688 252.335938 C 1183.472656 251.453125 1183.558594 250.5625 1183.558594 249.667969 C 1183.558594 248.773438 1183.472656 247.886719 1183.304688 247.007812 C 1183.140625 246.128906 1182.890625 245.273438 1182.566406 244.441406 C 1182.238281 243.605469 1181.839844 242.8125 1181.363281 242.054688 C 1180.886719 241.296875 1180.347656 240.589844 1179.742188 239.929688 C 1179.132812 239.273438 1178.472656 238.679688 1177.753906 238.144531 C 1177.035156 237.613281 1176.277344 237.148438 1175.472656 236.757812 C 1174.667969 236.363281 1173.835938 236.050781 1172.972656 235.8125 C 1172.109375 235.578125 1171.230469 235.421875 1170.339844 235.347656 L 1107.144531 230.898438 Z M 1106.238281 230.878906 " fill-opacity="1" fill-rule="nonzero"/></g><path fill="#000000" d="M 996.214844 272.320312 L 444.675781 272.320312 C 444.242188 272.320312 443.808594 272.292969 443.378906 272.234375 C 442.949219 272.179688 442.523438 272.097656 442.101562 271.984375 C 441.683594 271.875 441.273438 271.738281 440.871094 271.574219 C 440.46875 271.410156 440.078125 271.222656 439.699219 271.007812 C 439.324219 270.792969 438.960938 270.554688 438.613281 270.292969 C 438.265625 270.03125 437.9375 269.75 437.628906 269.445312 C 437.316406 269.140625 437.027344 268.820312 436.761719 268.476562 C 436.492188 268.136719 436.246094 267.78125 436.023438 267.40625 C 435.800781 267.035156 435.605469 266.648438 435.429688 266.25 C 435.257812 265.851562 435.113281 265.441406 434.992188 265.027344 C 434.875 264.609375 434.78125 264.183594 434.714844 263.753906 C 434.652344 263.324219 434.613281 262.894531 434.605469 262.460938 C 434.597656 262.027344 434.613281 261.59375 434.664062 261.160156 C 434.710938 260.730469 434.785156 260.300781 434.886719 259.878906 C 434.988281 259.457031 435.117188 259.046875 435.273438 258.640625 C 435.429688 258.234375 435.609375 257.839844 435.816406 257.457031 L 500.34375 138.203125 C 501.441406 136.167969 502.675781 134.214844 504.039062 132.347656 C 505.398438 130.476562 506.882812 128.707031 508.484375 127.035156 C 510.085938 125.367188 511.792969 123.8125 513.601562 122.371094 C 515.414062 120.929688 517.3125 119.617188 519.300781 118.433594 C 521.289062 117.25 523.34375 116.203125 525.472656 115.296875 C 527.601562 114.390625 529.78125 113.628906 532.011719 113.015625 C 534.242188 112.402344 536.507812 111.941406 538.800781 111.632812 C 541.09375 111.324219 543.394531 111.171875 545.710938 111.171875 L 895.140625 111.171875 C 897.453125 111.171875 899.757812 111.324219 902.046875 111.632812 C 904.339844 111.941406 906.601562 112.402344 908.832031 113.015625 C 911.0625 113.628906 913.242188 114.386719 915.367188 115.292969 C 917.496094 116.199219 919.554688 117.246094 921.542969 118.429688 C 923.527344 119.613281 925.425781 120.921875 927.238281 122.363281 C 929.046875 123.800781 930.753906 125.355469 932.355469 127.023438 C 933.957031 128.691406 935.4375 130.460938 936.800781 132.328125 C 938.164062 134.199219 939.398438 136.148438 940.496094 138.183594 L 1005.0625 257.457031 C 1005.269531 257.839844 1005.453125 258.234375 1005.605469 258.640625 C 1005.761719 259.042969 1005.890625 259.457031 1005.996094 259.878906 C 1006.097656 260.300781 1006.171875 260.726562 1006.21875 261.160156 C 1006.265625 261.589844 1006.285156 262.023438 1006.277344 262.457031 C 1006.265625 262.890625 1006.230469 263.324219 1006.164062 263.753906 C 1006.101562 264.179688 1006.007812 264.605469 1005.890625 265.023438 C 1005.769531 265.4375 1005.625 265.847656 1005.453125 266.246094 C 1005.277344 266.644531 1005.082031 267.03125 1004.859375 267.402344 C 1004.636719 267.777344 1004.394531 268.132812 1004.125 268.472656 C 1003.855469 268.816406 1003.566406 269.136719 1003.257812 269.441406 C 1002.945312 269.746094 1002.617188 270.027344 1002.273438 270.289062 C 1001.925781 270.550781 1001.5625 270.789062 1001.1875 271.003906 C 1000.808594 271.21875 1000.417969 271.40625 1000.019531 271.570312 C 999.617188 271.734375 999.207031 271.871094 998.785156 271.984375 C 998.367188 272.09375 997.941406 272.179688 997.511719 272.234375 C 997.082031 272.289062 996.648438 272.320312 996.214844 272.320312 Z M 461.601562 252.183594 L 979.308594 252.183594 L 922.796875 147.769531 C 922.125 146.527344 921.375 145.339844 920.542969 144.199219 C 919.710938 143.0625 918.808594 141.984375 917.832031 140.964844 C 916.855469 139.949219 915.816406 139.003906 914.710938 138.125 C 913.605469 137.25 912.449219 136.449219 911.238281 135.726562 C 910.023438 135.007812 908.769531 134.371094 907.472656 133.816406 C 906.175781 133.265625 904.847656 132.804688 903.488281 132.429688 C 902.128906 132.054688 900.75 131.777344 899.351562 131.585938 C 897.953125 131.398438 896.550781 131.304688 895.140625 131.308594 L 545.710938 131.308594 C 544.300781 131.308594 542.894531 131.402344 541.496094 131.589844 C 540.101562 131.777344 538.722656 132.058594 537.363281 132.433594 C 536.003906 132.808594 534.675781 133.269531 533.375 133.824219 C 532.078125 134.378906 530.824219 135.015625 529.613281 135.738281 C 528.402344 136.457031 527.246094 137.257812 526.140625 138.136719 C 525.039062 139.015625 524 139.964844 523.023438 140.980469 C 522.046875 142 521.144531 143.078125 520.3125 144.21875 C 519.484375 145.359375 518.734375 146.546875 518.0625 147.789062 Z M 461.601562 252.183594 " fill-opacity="1" fill-rule="nonzero"/><path fill="#000000" d="M 1091.015625 681.117188 L 978.816406 681.117188 C 977.488281 681.121094 976.167969 681.03125 974.855469 680.851562 C 973.539062 680.671875 972.242188 680.402344 970.964844 680.042969 C 969.6875 679.683594 968.441406 679.238281 967.226562 678.707031 C 966.011719 678.175781 964.835938 677.558594 963.707031 676.863281 C 962.574219 676.171875 961.5 675.398438 960.476562 674.554688 C 959.453125 673.710938 958.492188 672.800781 957.59375 671.824219 C 956.695312 670.84375 955.871094 669.808594 955.117188 668.71875 C 954.363281 667.625 953.6875 666.488281 953.09375 665.300781 C 952.734375 664.582031 952.285156 663.925781 951.742188 663.335938 C 951.203125 662.742188 950.589844 662.234375 949.90625 661.8125 C 949.222656 661.390625 948.496094 661.070312 947.722656 660.851562 C 946.949219 660.636719 946.164062 660.527344 945.359375 660.527344 L 495.539062 660.527344 C 494.742188 660.527344 493.957031 660.632812 493.1875 660.851562 C 492.417969 661.066406 491.691406 661.382812 491.007812 661.800781 C 490.328125 662.21875 489.714844 662.722656 489.171875 663.308594 C 488.632812 663.898438 488.179688 664.546875 487.816406 665.261719 C 487.222656 666.449219 486.546875 667.589844 485.792969 668.679688 C 485.039062 669.773438 484.214844 670.8125 483.316406 671.789062 C 482.417969 672.769531 481.457031 673.683594 480.433594 674.527344 C 479.410156 675.375 478.332031 676.144531 477.203125 676.84375 C 476.070312 677.539062 474.898438 678.15625 473.683594 678.691406 C 472.464844 679.222656 471.21875 679.671875 469.941406 680.03125 C 468.664062 680.394531 467.367188 680.664062 466.050781 680.847656 C 464.734375 681.027344 463.414062 681.117188 462.085938 681.117188 L 349.925781 681.117188 C 348.1875 681.125 346.453125 681.089844 344.714844 681.011719 C 342.980469 680.933594 341.246094 680.8125 339.515625 680.648438 C 337.789062 680.484375 336.0625 680.277344 334.34375 680.027344 C 332.625 679.777344 330.910156 679.484375 329.207031 679.152344 C 327.5 678.820312 325.804688 678.441406 324.117188 678.023438 C 322.429688 677.605469 320.753906 677.148438 319.089844 676.648438 C 317.425781 676.148438 315.777344 675.605469 314.140625 675.023438 C 312.503906 674.441406 310.878906 673.820312 309.273438 673.160156 C 307.667969 672.496094 306.078125 671.796875 304.503906 671.054688 C 302.933594 670.3125 301.382812 669.535156 299.847656 668.71875 C 298.3125 667.902344 296.800781 667.046875 295.3125 666.152344 C 293.820312 665.261719 292.351562 664.335938 290.90625 663.371094 C 289.460938 662.40625 288.039062 661.40625 286.644531 660.371094 C 285.246094 659.335938 283.878906 658.269531 282.535156 657.164062 C 281.191406 656.0625 279.875 654.929688 278.589844 653.761719 C 277.300781 652.59375 276.042969 651.394531 274.816406 650.167969 C 273.589844 648.9375 272.390625 647.679688 271.226562 646.390625 C 270.058594 645.101562 268.925781 643.785156 267.824219 642.441406 C 266.726562 641.09375 265.65625 639.722656 264.625 638.328125 C 263.589844 636.929688 262.59375 635.507812 261.628906 634.0625 C 260.667969 632.613281 259.742188 631.144531 258.851562 629.652344 C 257.960938 628.160156 257.109375 626.648438 256.292969 625.113281 C 255.476562 623.578125 254.699219 622.027344 253.960938 620.453125 C 253.222656 618.878906 252.523438 617.289062 251.863281 615.683594 C 251.203125 614.074219 250.582031 612.453125 250.003906 610.816406 C 249.421875 609.175781 248.882812 607.527344 248.382812 605.859375 C 247.886719 604.195312 247.429688 602.519531 247.011719 600.832031 C 246.597656 599.144531 246.222656 597.449219 245.890625 595.746094 C 245.558594 594.039062 245.269531 592.324219 245.023438 590.605469 C 244.777344 588.886719 244.570312 587.160156 244.410156 585.429688 C 244.246094 583.699219 244.128906 581.96875 244.050781 580.230469 C 243.972656 578.496094 243.941406 576.757812 243.949219 575.023438 L 243.949219 411.195312 C 243.933594 408.144531 244.03125 405.09375 244.246094 402.046875 C 244.460938 399.003906 244.789062 395.96875 245.234375 392.949219 C 245.675781 389.929688 246.234375 386.929688 246.902344 383.949219 C 247.574219 380.972656 248.355469 378.023438 249.246094 375.101562 C 250.140625 372.183594 251.140625 369.300781 252.25 366.457031 C 253.359375 363.613281 254.578125 360.816406 255.898438 358.0625 C 257.21875 355.3125 258.644531 352.613281 260.167969 349.96875 C 261.695312 347.324219 263.316406 344.742188 265.039062 342.21875 C 266.757812 339.699219 268.574219 337.246094 270.480469 334.859375 C 272.386719 332.476562 274.378906 330.164062 276.457031 327.929688 C 278.539062 325.695312 280.703125 323.542969 282.945312 321.472656 C 285.1875 319.402344 287.503906 317.417969 289.898438 315.523438 C 292.292969 313.625 294.753906 311.824219 297.28125 310.113281 C 299.8125 308.402344 302.402344 306.792969 305.050781 305.277344 C 307.703125 303.761719 310.40625 302.351562 313.164062 301.039062 C 315.921875 299.730469 318.726562 298.527344 321.574219 297.429688 C 323.695312 296.570312 325.742188 295.566406 327.714844 294.40625 C 328.898438 293.734375 330.164062 293.316406 331.511719 293.148438 C 332.859375 292.984375 334.191406 293.082031 335.5 293.453125 C 341.796875 295.246094 347.957031 297.4375 353.976562 300.015625 C 359.996094 302.597656 365.828125 305.546875 371.472656 308.871094 C 377.117188 312.195312 382.527344 315.863281 387.707031 319.875 C 392.882812 323.886719 397.785156 328.210938 402.410156 332.847656 L 486.984375 417.347656 C 490.132812 420.484375 493.425781 423.460938 496.867188 426.273438 C 500.304688 429.085938 503.875 431.726562 507.570312 434.191406 C 511.269531 436.660156 515.078125 438.9375 519 441.03125 C 522.917969 443.125 526.933594 445.019531 531.039062 446.722656 C 535.144531 448.421875 539.324219 449.917969 543.574219 451.210938 C 547.828125 452.503906 552.132812 453.585938 556.492188 454.457031 C 560.847656 455.328125 565.238281 455.984375 569.660156 456.429688 C 574.082031 456.871094 578.515625 457.097656 582.960938 457.105469 L 858.019531 457.105469 C 862.464844 457.097656 866.894531 456.871094 871.316406 456.429688 C 875.738281 455.988281 880.125 455.328125 884.480469 454.457031 C 888.839844 453.585938 893.144531 452.507812 897.394531 451.214844 C 901.644531 449.921875 905.824219 448.425781 909.925781 446.726562 C 914.03125 445.023438 918.042969 443.128906 921.964844 441.035156 C 925.882812 438.941406 929.691406 436.664062 933.386719 434.199219 C 937.082031 431.734375 940.652344 429.09375 944.089844 426.28125 C 947.527344 423.46875 950.820312 420.492188 953.96875 417.359375 L 1038.609375 332.785156 C 1043.234375 328.164062 1048.132812 323.847656 1053.304688 319.84375 C 1058.476562 315.839844 1063.878906 312.175781 1069.515625 308.855469 C 1075.148438 305.535156 1080.972656 302.585938 1086.980469 300.003906 C 1092.988281 297.417969 1099.136719 295.226562 1105.421875 293.421875 C 1106.714844 293.050781 1108.027344 292.941406 1109.363281 293.097656 C 1110.699219 293.253906 1111.953125 293.660156 1113.125 294.316406 C 1113.527344 294.539062 1114.554688 295.234375 1114.925781 295.503906 C 1116.023438 296.089844 1117.65625 296.765625 1119.296875 297.449219 C 1122.144531 298.546875 1124.949219 299.75 1127.710938 301.058594 C 1130.46875 302.367188 1133.175781 303.78125 1135.828125 305.292969 C 1138.480469 306.808594 1141.070312 308.417969 1143.601562 310.128906 C 1146.132812 311.835938 1148.59375 313.640625 1150.988281 315.535156 C 1153.382812 317.429688 1155.703125 319.414062 1157.949219 321.484375 C 1160.191406 323.554688 1162.355469 325.707031 1164.4375 327.941406 C 1166.519531 330.175781 1168.515625 332.484375 1170.421875 334.871094 C 1172.332031 337.253906 1174.144531 339.707031 1175.867188 342.230469 C 1177.589844 344.75 1179.214844 347.335938 1180.742188 349.980469 C 1182.269531 352.625 1183.695312 355.320312 1185.019531 358.074219 C 1186.34375 360.828125 1187.5625 363.625 1188.671875 366.46875 C 1189.785156 369.3125 1190.789062 372.195312 1191.683594 375.117188 C 1192.578125 378.035156 1193.359375 380.984375 1194.03125 383.964844 C 1194.703125 386.941406 1195.261719 389.941406 1195.707031 392.964844 C 1196.152344 395.984375 1196.484375 399.019531 1196.699219 402.066406 C 1196.914062 405.113281 1197.015625 408.164062 1197 411.214844 L 1197 575.023438 C 1197 576.757812 1196.957031 578.488281 1196.871094 580.222656 C 1196.785156 581.957031 1196.65625 583.683594 1196.484375 585.410156 C 1196.3125 587.136719 1196.101562 588.859375 1195.84375 590.574219 C 1195.589844 592.292969 1195.292969 594 1194.953125 595.703125 C 1194.613281 597.402344 1194.234375 599.09375 1193.8125 600.777344 C 1193.390625 602.460938 1192.925781 604.132812 1192.421875 605.792969 C 1191.917969 607.453125 1191.375 609.097656 1190.789062 610.730469 C 1190.207031 612.367188 1189.582031 613.984375 1188.917969 615.585938 C 1188.253906 617.1875 1187.550781 618.773438 1186.808594 620.34375 C 1186.066406 621.910156 1185.285156 623.460938 1184.46875 624.992188 C 1183.652344 626.519531 1182.796875 628.03125 1181.90625 629.519531 C 1181.011719 631.007812 1180.085938 632.472656 1179.121094 633.914062 C 1178.160156 635.355469 1177.160156 636.773438 1176.128906 638.167969 C 1175.09375 639.5625 1174.027344 640.929688 1172.925781 642.273438 C 1171.828125 643.613281 1170.695312 644.925781 1169.53125 646.214844 C 1168.367188 647.5 1167.171875 648.753906 1165.945312 649.984375 C 1164.71875 651.210938 1163.464844 652.40625 1162.179688 653.574219 C 1160.894531 654.738281 1159.582031 655.871094 1158.242188 656.972656 C 1156.898438 658.074219 1155.535156 659.144531 1154.140625 660.179688 C 1152.75 661.210938 1151.332031 662.210938 1149.890625 663.175781 C 1148.449219 664.140625 1146.984375 665.070312 1145.496094 665.964844 C 1144.007812 666.859375 1142.5 667.714844 1140.972656 668.535156 C 1139.441406 669.351562 1137.894531 670.132812 1136.324219 670.878906 C 1134.757812 671.621094 1133.171875 672.324219 1131.570312 672.992188 C 1129.96875 673.65625 1128.351562 674.28125 1126.71875 674.867188 C 1125.085938 675.457031 1123.441406 676 1121.78125 676.507812 C 1120.121094 677.011719 1118.449219 677.476562 1116.769531 677.902344 C 1115.085938 678.324219 1113.394531 678.707031 1111.691406 679.046875 C 1109.992188 679.390625 1108.285156 679.6875 1106.566406 679.945312 C 1104.851562 680.203125 1103.128906 680.417969 1101.40625 680.589844 C 1099.679688 680.761719 1097.949219 680.894531 1096.214844 680.980469 C 1094.484375 681.070312 1092.75 681.113281 1091.015625 681.117188 Z M 495.539062 640.390625 L 945.359375 640.390625 C 946.691406 640.386719 948.011719 640.472656 949.332031 640.652344 C 950.648438 640.828125 951.945312 641.097656 953.226562 641.457031 C 954.507812 641.816406 955.757812 642.261719 956.972656 642.792969 C 958.191406 643.328125 959.367188 643.941406 960.5 644.636719 C 961.632812 645.335938 962.710938 646.105469 963.738281 646.953125 C 964.761719 647.796875 965.722656 648.710938 966.621094 649.691406 C 967.519531 650.671875 968.347656 651.707031 969.101562 652.804688 C 969.855469 653.898438 970.53125 655.039062 971.125 656.230469 C 971.484375 656.945312 971.9375 657.601562 972.480469 658.191406 C 973.023438 658.78125 973.636719 659.289062 974.320312 659.707031 C 975.003906 660.125 975.730469 660.445312 976.503906 660.660156 C 977.277344 660.878906 978.066406 660.984375 978.867188 660.980469 L 1091.015625 660.980469 C 1092.421875 660.980469 1093.824219 660.941406 1095.226562 660.871094 C 1096.632812 660.800781 1098.03125 660.695312 1099.433594 660.554688 C 1100.832031 660.414062 1102.222656 660.238281 1103.613281 660.03125 C 1105.003906 659.824219 1106.386719 659.582031 1107.765625 659.304688 C 1109.144531 659.027344 1110.515625 658.71875 1111.878906 658.375 C 1113.242188 658.03125 1114.59375 657.65625 1115.9375 657.246094 C 1117.28125 656.835938 1118.617188 656.394531 1119.9375 655.917969 C 1121.261719 655.441406 1122.574219 654.933594 1123.871094 654.394531 C 1125.167969 653.855469 1126.453125 653.285156 1127.722656 652.683594 C 1128.992188 652.082031 1130.246094 651.449219 1131.484375 650.785156 C 1132.722656 650.121094 1133.945312 649.425781 1135.148438 648.703125 C 1136.355469 647.980469 1137.542969 647.226562 1138.710938 646.445312 C 1139.878906 645.660156 1141.023438 644.851562 1142.152344 644.015625 C 1143.28125 643.175781 1144.386719 642.308594 1145.472656 641.417969 C 1146.558594 640.523438 1147.625 639.605469 1148.664062 638.660156 C 1149.703125 637.71875 1150.722656 636.746094 1151.714844 635.753906 C 1152.707031 634.757812 1153.675781 633.742188 1154.621094 632.699219 C 1155.5625 631.65625 1156.480469 630.59375 1157.371094 629.503906 C 1158.261719 628.417969 1159.125 627.3125 1159.960938 626.179688 C 1160.800781 625.050781 1161.609375 623.902344 1162.386719 622.734375 C 1163.167969 621.566406 1163.921875 620.378906 1164.640625 619.171875 C 1165.363281 617.964844 1166.058594 616.742188 1166.71875 615.503906 C 1167.382812 614.265625 1168.011719 613.007812 1168.613281 611.738281 C 1169.214844 610.46875 1169.785156 609.183594 1170.320312 607.886719 C 1170.859375 606.585938 1171.363281 605.277344 1171.839844 603.953125 C 1172.3125 602.628906 1172.753906 601.292969 1173.160156 599.949219 C 1173.570312 598.605469 1173.945312 597.25 1174.285156 595.886719 C 1174.625 594.523438 1174.933594 593.152344 1175.210938 591.773438 C 1175.484375 590.398438 1175.722656 589.011719 1175.929688 587.621094 C 1176.136719 586.230469 1176.308594 584.835938 1176.449219 583.4375 C 1176.585938 582.039062 1176.691406 580.640625 1176.757812 579.234375 C 1176.828125 577.832031 1176.863281 576.425781 1176.863281 575.023438 L 1176.863281 411.195312 C 1176.878906 408.644531 1176.792969 406.09375 1176.613281 403.550781 C 1176.429688 401.003906 1176.15625 398.46875 1175.78125 395.941406 C 1175.410156 393.417969 1174.945312 390.910156 1174.382812 388.421875 C 1173.820312 385.929688 1173.164062 383.464844 1172.417969 381.027344 C 1171.667969 378.585938 1170.828125 376.175781 1169.898438 373.800781 C 1168.96875 371.421875 1167.949219 369.085938 1166.84375 366.785156 C 1165.734375 364.484375 1164.542969 362.230469 1163.265625 360.023438 C 1161.988281 357.8125 1160.628906 355.65625 1159.1875 353.546875 C 1157.746094 351.441406 1156.230469 349.390625 1154.632812 347.398438 C 1153.039062 345.40625 1151.367188 343.480469 1149.628906 341.613281 C 1147.886719 339.746094 1146.074219 337.949219 1144.199219 336.21875 C 1142.320312 334.492188 1140.382812 332.835938 1138.378906 331.253906 C 1136.375 329.671875 1134.316406 328.167969 1132.199219 326.738281 C 1130.082031 325.3125 1127.917969 323.96875 1125.699219 322.707031 C 1123.480469 321.441406 1121.21875 320.265625 1118.910156 319.175781 C 1116.605469 318.082031 1114.257812 317.078125 1111.875 316.164062 L 1111.625 316.054688 C 1110.054688 315.398438 1108.492188 314.734375 1106.972656 314.039062 C 1096.769531 317.300781 1087.097656 321.71875 1077.949219 327.292969 C 1068.804688 332.867188 1060.441406 339.441406 1052.867188 347.011719 L 968.214844 431.582031 C 964.601562 435.183594 960.816406 438.601562 956.867188 441.832031 C 952.921875 445.066406 948.824219 448.097656 944.578125 450.929688 C 940.332031 453.757812 935.960938 456.375 931.457031 458.78125 C 926.957031 461.183594 922.347656 463.363281 917.636719 465.316406 C 912.921875 467.269531 908.121094 468.988281 903.242188 470.472656 C 898.359375 471.957031 893.414062 473.199219 888.410156 474.199219 C 883.410156 475.199219 878.367188 475.957031 873.289062 476.464844 C 868.214844 476.972656 863.121094 477.230469 858.019531 477.242188 L 582.980469 477.242188 C 577.878906 477.230469 572.785156 476.972656 567.707031 476.464844 C 562.628906 475.957031 557.585938 475.203125 552.582031 474.203125 C 547.578125 473.203125 542.632812 471.960938 537.75 470.476562 C 532.867188 468.992188 528.066406 467.273438 523.351562 465.320312 C 518.636719 463.367188 514.027344 461.1875 509.523438 458.785156 C 505.023438 456.378906 500.648438 453.761719 496.402344 450.929688 C 492.152344 448.097656 488.054688 445.066406 484.105469 441.835938 C 480.15625 438.601562 476.371094 435.1875 472.757812 431.582031 L 388.183594 347.011719 C 380.585938 339.398438 372.1875 332.792969 362.996094 327.203125 C 353.800781 321.613281 344.074219 317.195312 333.816406 313.949219 C 332.160156 314.777344 330.519531 315.503906 328.894531 316.132812 C 326.515625 317.050781 324.171875 318.058594 321.867188 319.152344 C 319.566406 320.25 317.304688 321.429688 315.089844 322.695312 C 312.875 323.960938 310.714844 325.308594 308.601562 326.734375 C 306.488281 328.164062 304.433594 329.671875 302.433594 331.253906 C 300.433594 332.839844 298.496094 334.496094 296.625 336.226562 C 294.75 337.957031 292.945312 339.757812 291.207031 341.625 C 289.46875 343.492188 287.804688 345.421875 286.210938 347.414062 C 284.621094 349.40625 283.105469 351.457031 281.667969 353.566406 C 280.230469 355.671875 278.875 357.832031 277.601562 360.039062 C 276.328125 362.25 275.140625 364.503906 274.035156 366.804688 C 272.933594 369.101562 271.917969 371.441406 270.988281 373.816406 C 270.0625 376.195312 269.226562 378.601562 268.480469 381.039062 C 267.738281 383.480469 267.085938 385.945312 266.527344 388.433594 C 265.964844 390.921875 265.503906 393.425781 265.132812 395.953125 C 264.761719 398.476562 264.488281 401.007812 264.3125 403.554688 C 264.132812 406.097656 264.050781 408.644531 264.066406 411.195312 L 264.066406 575.023438 C 264.054688 576.429688 264.082031 577.835938 264.140625 579.246094 C 264.203125 580.652344 264.296875 582.054688 264.425781 583.457031 C 264.554688 584.859375 264.722656 586.257812 264.917969 587.652344 C 265.117188 589.046875 265.351562 590.4375 265.621094 591.820312 C 265.886719 593.203125 266.1875 594.578125 266.523438 595.945312 C 266.859375 597.3125 267.230469 598.671875 267.632812 600.019531 C 268.035156 601.371094 268.46875 602.710938 268.941406 604.035156 C 269.410156 605.363281 269.910156 606.679688 270.445312 607.984375 C 270.980469 609.285156 271.546875 610.574219 272.144531 611.851562 C 272.742188 613.125 273.371094 614.386719 274.03125 615.628906 C 274.691406 616.875 275.382812 618.101562 276.101562 619.308594 C 276.824219 620.519531 277.574219 621.710938 278.355469 622.882812 C 279.132812 624.054688 279.941406 625.210938 280.777344 626.339844 C 281.617188 627.472656 282.480469 628.585938 283.371094 629.675781 C 284.265625 630.765625 285.183594 631.832031 286.128906 632.878906 C 287.074219 633.921875 288.042969 634.941406 289.039062 635.9375 C 290.035156 636.933594 291.050781 637.90625 292.097656 638.851562 C 293.140625 639.796875 294.207031 640.71875 295.292969 641.609375 C 296.382812 642.503906 297.492188 643.371094 298.625 644.207031 C 299.757812 645.046875 300.910156 645.855469 302.082031 646.636719 C 303.253906 647.417969 304.441406 648.171875 305.652344 648.894531 C 306.859375 649.617188 308.085938 650.308594 309.328125 650.96875 C 310.574219 651.632812 311.832031 652.261719 313.105469 652.863281 C 314.378906 653.460938 315.667969 654.027344 316.972656 654.5625 C 318.273438 655.101562 319.589844 655.601562 320.917969 656.074219 C 322.242188 656.542969 323.582031 656.980469 324.929688 657.386719 C 326.28125 657.789062 327.636719 658.160156 329.003906 658.5 C 330.371094 658.835938 331.746094 659.140625 333.128906 659.410156 C 334.511719 659.679688 335.902344 659.914062 337.296875 660.113281 C 338.6875 660.3125 340.085938 660.480469 341.488281 660.609375 C 342.890625 660.742188 344.296875 660.839844 345.703125 660.902344 C 347.109375 660.960938 348.519531 660.988281 349.925781 660.980469 L 462.085938 660.980469 C 462.882812 660.984375 463.667969 660.875 464.4375 660.660156 C 465.207031 660.445312 465.933594 660.125 466.617188 659.707031 C 467.296875 659.292969 467.910156 658.789062 468.449219 658.199219 C 468.992188 657.613281 469.445312 656.960938 469.804688 656.25 C 470.402344 655.0625 471.078125 653.921875 471.828125 652.828125 C 472.582031 651.734375 473.410156 650.695312 474.304688 649.71875 C 475.203125 648.738281 476.164062 647.824219 477.1875 646.980469 C 478.210938 646.132812 479.289062 645.359375 480.417969 644.664062 C 481.550781 643.96875 482.722656 643.351562 483.941406 642.816406 C 485.15625 642.285156 486.402344 641.835938 487.683594 641.476562 C 488.960938 641.113281 490.257812 640.84375 491.574219 640.660156 C 492.890625 640.480469 494.210938 640.390625 495.539062 640.390625 Z M 495.539062 640.390625 " fill-opacity="1" fill-rule="nonzero"/><path fill="#000000" d="M 346.511719 504.738281 C 345.324219 504.738281 344.136719 504.707031 342.953125 504.648438 C 341.765625 504.589844 340.582031 504.5 339.398438 504.382812 C 338.21875 504.265625 337.039062 504.121094 335.863281 503.945312 C 334.6875 503.769531 333.519531 503.566406 332.355469 503.335938 C 331.191406 503.101562 330.03125 502.839844 328.878906 502.550781 C 327.726562 502.261719 326.582031 501.945312 325.445312 501.601562 C 324.308594 501.253906 323.183594 500.882812 322.066406 500.480469 C 320.945312 500.078125 319.839844 499.652344 318.742188 499.195312 C 317.644531 498.742188 316.558594 498.257812 315.484375 497.75 C 314.414062 497.242188 313.351562 496.707031 312.304688 496.148438 C 311.257812 495.585938 310.226562 495 309.207031 494.390625 C 308.1875 493.777344 307.183594 493.140625 306.199219 492.480469 C 305.210938 491.820312 304.242188 491.136719 303.285156 490.429688 C 302.332031 489.71875 301.398438 488.988281 300.480469 488.234375 C 299.5625 487.480469 298.664062 486.703125 297.785156 485.90625 C 296.902344 485.109375 296.042969 484.289062 295.207031 483.449219 C 294.367188 482.609375 293.546875 481.746094 292.75 480.867188 C 291.953125 479.988281 291.179688 479.085938 290.425781 478.167969 C 289.671875 477.25 288.941406 476.3125 288.234375 475.359375 C 287.527344 474.402344 286.84375 473.433594 286.1875 472.445312 C 285.527344 471.457031 284.890625 470.453125 284.28125 469.433594 C 283.671875 468.414062 283.089844 467.382812 282.527344 466.332031 C 281.96875 465.285156 281.4375 464.222656 280.929688 463.148438 C 280.421875 462.074219 279.941406 460.988281 279.488281 459.890625 C 279.035156 458.792969 278.609375 457.6875 278.207031 456.566406 C 277.808594 455.449219 277.4375 454.320312 277.09375 453.183594 C 276.75 452.046875 276.433594 450.902344 276.144531 449.75 C 275.859375 448.597656 275.597656 447.4375 275.367188 446.273438 C 275.136719 445.109375 274.933594 443.9375 274.761719 442.765625 C 274.585938 441.589844 274.441406 440.410156 274.328125 439.226562 C 274.210938 438.046875 274.125 436.863281 274.066406 435.675781 C 274.011719 434.488281 273.980469 433.300781 273.984375 432.113281 C 273.984375 430.925781 274.015625 429.738281 274.074219 428.554688 C 274.132812 427.367188 274.21875 426.183594 274.339844 425 C 274.457031 423.816406 274.601562 422.640625 274.777344 421.464844 C 274.953125 420.289062 275.15625 419.121094 275.386719 417.957031 C 275.621094 416.789062 275.882812 415.632812 276.171875 414.480469 C 276.460938 413.328125 276.777344 412.183594 277.125 411.046875 C 277.46875 409.910156 277.84375 408.785156 278.246094 407.667969 C 278.644531 406.546875 279.074219 405.441406 279.527344 404.34375 C 279.984375 403.246094 280.464844 402.160156 280.976562 401.089844 C 281.484375 400.015625 282.019531 398.953125 282.578125 397.90625 C 283.140625 396.859375 283.726562 395.828125 284.335938 394.808594 C 284.949219 393.789062 285.585938 392.789062 286.246094 391.800781 C 286.90625 390.8125 287.589844 389.84375 288.300781 388.890625 C 289.007812 387.9375 289.738281 387 290.492188 386.082031 C 291.246094 385.167969 292.023438 384.269531 292.824219 383.386719 C 293.621094 382.507812 294.441406 381.648438 295.28125 380.808594 C 296.121094 379.972656 296.984375 379.152344 297.863281 378.355469 C 298.746094 377.558594 299.644531 376.785156 300.5625 376.03125 C 301.480469 375.277344 302.417969 374.550781 303.371094 373.84375 C 304.328125 373.136719 305.300781 372.453125 306.289062 371.792969 C 307.277344 371.132812 308.277344 370.5 309.296875 369.890625 C 310.316406 369.28125 311.351562 368.695312 312.398438 368.136719 C 313.449219 367.578125 314.507812 367.046875 315.582031 366.539062 C 316.65625 366.03125 317.742188 365.550781 318.839844 365.097656 C 319.9375 364.644531 321.046875 364.21875 322.164062 363.820312 C 323.285156 363.417969 324.414062 363.046875 325.550781 362.703125 C 326.6875 362.359375 327.832031 362.042969 328.984375 361.757812 C 330.136719 361.46875 331.292969 361.210938 332.460938 360.980469 C 333.625 360.75 334.796875 360.546875 335.96875 360.375 C 337.144531 360.199219 338.324219 360.054688 339.507812 359.941406 C 340.6875 359.824219 341.871094 359.738281 343.058594 359.683594 C 344.246094 359.625 345.433594 359.597656 346.621094 359.597656 C 347.808594 359.597656 348.996094 359.628906 350.183594 359.6875 C 351.367188 359.75 352.550781 359.835938 353.734375 359.953125 C 354.917969 360.070312 356.09375 360.21875 357.269531 360.394531 C 358.445312 360.570312 359.613281 360.773438 360.777344 361.003906 C 361.945312 361.238281 363.101562 361.5 364.253906 361.789062 C 365.40625 362.078125 366.550781 362.398438 367.6875 362.742188 C 368.824219 363.089844 369.949219 363.460938 371.066406 363.863281 C 372.1875 364.265625 373.292969 364.695312 374.390625 365.148438 C 375.488281 365.605469 376.574219 366.085938 377.644531 366.597656 C 378.71875 367.105469 379.777344 367.640625 380.824219 368.199219 C 381.871094 368.761719 382.90625 369.347656 383.921875 369.960938 C 384.941406 370.570312 385.945312 371.207031 386.929688 371.867188 C 387.917969 372.527344 388.890625 373.214844 389.84375 373.921875 C 390.796875 374.632812 391.730469 375.363281 392.648438 376.117188 C 393.566406 376.871094 394.464844 377.648438 395.34375 378.445312 C 396.222656 379.246094 397.082031 380.066406 397.921875 380.90625 C 398.761719 381.746094 399.578125 382.605469 400.375 383.488281 C 401.171875 384.367188 401.945312 385.269531 402.699219 386.1875 C 403.453125 387.105469 404.179688 388.042969 404.886719 389 C 405.59375 389.953125 406.277344 390.925781 406.9375 391.914062 C 407.59375 392.902344 408.230469 393.90625 408.839844 394.925781 C 409.449219 395.945312 410.03125 396.976562 410.589844 398.027344 C 411.148438 399.074219 411.683594 400.136719 412.1875 401.210938 C 412.695312 402.285156 413.175781 403.371094 413.628906 404.46875 C 414.082031 405.566406 414.507812 406.675781 414.90625 407.792969 C 415.308594 408.910156 415.679688 410.039062 416.023438 411.175781 C 416.367188 412.3125 416.679688 413.457031 416.96875 414.609375 C 417.253906 415.761719 417.515625 416.921875 417.746094 418.085938 C 417.976562 419.253906 418.175781 420.421875 418.351562 421.597656 C 418.523438 422.773438 418.667969 423.953125 418.78125 425.132812 C 418.898438 426.316406 418.984375 427.5 419.039062 428.6875 C 419.097656 429.875 419.125 431.058594 419.125 432.25 C 419.121094 433.433594 419.089844 434.621094 419.03125 435.808594 C 418.96875 436.992188 418.882812 438.175781 418.761719 439.355469 C 418.644531 440.539062 418.496094 441.714844 418.320312 442.890625 C 418.144531 444.0625 417.941406 445.234375 417.707031 446.394531 C 417.476562 447.558594 417.214844 448.71875 416.921875 449.867188 C 416.632812 451.019531 416.316406 452.164062 415.96875 453.296875 C 415.621094 454.433594 415.25 455.5625 414.847656 456.679688 C 414.445312 457.792969 414.019531 458.902344 413.5625 459.996094 C 413.105469 461.09375 412.625 462.179688 412.117188 463.25 C 411.605469 464.324219 411.070312 465.382812 410.511719 466.429688 C 409.949219 467.476562 409.363281 468.507812 408.753906 469.523438 C 408.140625 470.542969 407.503906 471.542969 406.84375 472.53125 C 406.183594 473.515625 405.5 474.484375 404.792969 475.4375 C 404.085938 476.390625 403.351562 477.328125 402.597656 478.242188 C 401.84375 479.160156 401.070312 480.058594 400.269531 480.9375 C 399.472656 481.816406 398.652344 482.675781 397.8125 483.511719 C 396.972656 484.351562 396.113281 485.167969 395.234375 485.964844 C 394.355469 486.761719 393.453125 487.535156 392.535156 488.289062 C 391.617188 489.042969 390.683594 489.769531 389.726562 490.476562 C 388.773438 491.183594 387.804688 491.867188 386.816406 492.527344 C 385.828125 493.183594 384.824219 493.820312 383.808594 494.429688 C 382.789062 495.039062 381.753906 495.621094 380.707031 496.179688 C 379.660156 496.742188 378.601562 497.273438 377.527344 497.78125 C 376.453125 498.289062 375.371094 498.769531 374.273438 499.222656 C 373.175781 499.675781 372.066406 500.101562 370.949219 500.5 C 369.832031 500.902344 368.707031 501.273438 367.570312 501.617188 C 366.433594 501.960938 365.289062 502.277344 364.136719 502.566406 C 362.988281 502.855469 361.828125 503.113281 360.664062 503.34375 C 359.5 503.578125 358.332031 503.777344 357.15625 503.953125 C 355.980469 504.128906 354.804688 504.273438 353.621094 504.386719 C 352.441406 504.503906 351.257812 504.59375 350.074219 504.648438 C 348.886719 504.707031 347.699219 504.738281 346.511719 504.738281 Z M 346.511719 379.734375 C 344.796875 379.734375 343.085938 379.820312 341.375 379.988281 C 339.667969 380.160156 337.972656 380.414062 336.289062 380.75 C 334.605469 381.085938 332.941406 381.503906 331.300781 382 C 329.65625 382.5 328.042969 383.078125 326.457031 383.738281 C 324.871094 384.394531 323.320312 385.128906 321.808594 385.941406 C 320.292969 386.75 318.824219 387.632812 317.398438 388.585938 C 315.96875 389.542969 314.59375 390.5625 313.265625 391.652344 C 311.941406 392.742188 310.671875 393.894531 309.457031 395.109375 C 308.246094 396.324219 307.09375 397.597656 306.003906 398.921875 C 304.917969 400.25 303.894531 401.628906 302.941406 403.054688 C 301.988281 404.484375 301.109375 405.957031 300.300781 407.46875 C 299.492188 408.984375 298.757812 410.535156 298.101562 412.121094 C 297.445312 413.707031 296.871094 415.320312 296.371094 416.964844 C 295.875 418.609375 295.457031 420.269531 295.125 421.953125 C 294.789062 423.636719 294.539062 425.335938 294.371094 427.042969 C 294.203125 428.75 294.117188 430.464844 294.121094 432.179688 C 294.121094 433.898438 294.203125 435.609375 294.371094 437.320312 C 294.542969 439.027344 294.792969 440.722656 295.128906 442.40625 C 295.464844 444.089844 295.878906 445.753906 296.378906 447.394531 C 296.878906 449.039062 297.457031 450.652344 298.113281 452.238281 C 298.769531 453.824219 299.503906 455.375 300.3125 456.890625 C 301.121094 458.402344 302.003906 459.875 302.957031 461.300781 C 303.910156 462.726562 304.933594 464.105469 306.023438 465.433594 C 307.113281 466.757812 308.261719 468.03125 309.476562 469.242188 C 310.691406 470.457031 311.960938 471.609375 313.289062 472.699219 C 314.617188 473.789062 315.992188 474.808594 317.417969 475.761719 C 318.847656 476.714844 320.316406 477.597656 321.832031 478.40625 C 323.347656 479.21875 324.894531 479.949219 326.480469 480.609375 C 328.066406 481.265625 329.683594 481.84375 331.324219 482.339844 C 332.96875 482.839844 334.628906 483.257812 336.3125 483.59375 C 337.996094 483.925781 339.695312 484.179688 341.402344 484.347656 C 343.109375 484.515625 344.824219 484.601562 346.539062 484.601562 C 348.257812 484.601562 349.96875 484.519531 351.679688 484.351562 C 353.386719 484.183594 355.082031 483.929688 356.765625 483.597656 C 358.449219 483.261719 360.113281 482.847656 361.757812 482.347656 C 363.398438 481.851562 365.015625 481.273438 366.601562 480.617188 C 368.1875 479.960938 369.738281 479.230469 371.25 478.421875 C 372.765625 477.613281 374.238281 476.730469 375.664062 475.777344 C 377.09375 474.824219 378.46875 473.804688 379.796875 472.714844 C 381.125 471.625 382.398438 470.476562 383.609375 469.261719 C 384.824219 468.050781 385.976562 466.78125 387.066406 465.453125 C 388.15625 464.125 389.179688 462.75 390.132812 461.324219 C 391.089844 459.894531 391.972656 458.425781 392.78125 456.914062 C 393.589844 455.398438 394.324219 453.851562 394.984375 452.265625 C 395.640625 450.679688 396.21875 449.066406 396.71875 447.421875 C 397.21875 445.78125 397.636719 444.117188 397.972656 442.433594 C 398.308594 440.75 398.5625 439.054688 398.730469 437.34375 C 398.902344 435.636719 398.988281 433.925781 398.988281 432.207031 C 398.988281 430.488281 398.902344 428.773438 398.734375 427.066406 C 398.566406 425.355469 398.3125 423.65625 397.976562 421.972656 C 397.640625 420.285156 397.226562 418.621094 396.726562 416.976562 C 396.226562 415.332031 395.648438 413.714844 394.992188 412.128906 C 394.332031 410.539062 393.597656 408.988281 392.789062 407.472656 C 391.980469 405.957031 391.097656 404.484375 390.140625 403.058594 C 389.1875 401.628906 388.164062 400.25 387.074219 398.921875 C 385.984375 397.59375 384.832031 396.320312 383.617188 395.105469 C 382.398438 393.890625 381.128906 392.738281 379.800781 391.648438 C 378.472656 390.558594 377.09375 389.535156 375.664062 388.582031 C 374.234375 387.625 372.761719 386.742188 371.246094 385.933594 C 369.730469 385.121094 368.179688 384.386719 366.59375 383.730469 C 365.003906 383.074219 363.390625 382.496094 361.746094 381.996094 C 360.101562 381.496094 358.433594 381.078125 356.75 380.742188 C 355.0625 380.410156 353.367188 380.15625 351.65625 379.988281 C 349.945312 379.820312 348.230469 379.734375 346.511719 379.734375 Z M 346.511719 379.734375 " fill-opacity="1" fill-rule="nonzero"/><path fill="#000000" d="M 1094.308594 504.738281 C 1093.121094 504.738281 1091.933594 504.707031 1090.746094 504.648438 C 1089.558594 504.589844 1088.375 504.5 1087.195312 504.382812 C 1086.011719 504.265625 1084.832031 504.121094 1083.660156 503.945312 C 1082.484375 503.769531 1081.3125 503.566406 1080.148438 503.332031 C 1078.984375 503.101562 1077.824219 502.839844 1076.675781 502.550781 C 1075.523438 502.261719 1074.378906 501.941406 1073.242188 501.597656 C 1072.105469 501.25 1070.976562 500.878906 1069.859375 500.476562 C 1068.742188 500.078125 1067.632812 499.648438 1066.535156 499.191406 C 1065.441406 498.738281 1064.355469 498.253906 1063.28125 497.746094 C 1062.207031 497.238281 1061.148438 496.703125 1060.101562 496.144531 C 1059.054688 495.582031 1058.019531 494.996094 1057.003906 494.386719 C 1055.984375 493.773438 1054.980469 493.136719 1053.996094 492.476562 C 1053.007812 491.816406 1052.039062 491.132812 1051.082031 490.421875 C 1050.128906 489.714844 1049.195312 488.984375 1048.277344 488.230469 C 1047.359375 487.476562 1046.460938 486.699219 1045.582031 485.902344 C 1044.703125 485.101562 1043.84375 484.285156 1043.003906 483.441406 C 1042.164062 482.601562 1041.347656 481.742188 1040.550781 480.859375 C 1039.75 479.980469 1038.976562 479.082031 1038.222656 478.160156 C 1037.472656 477.242188 1036.742188 476.308594 1036.035156 475.351562 C 1035.328125 474.398438 1034.644531 473.425781 1033.984375 472.4375 C 1033.328125 471.449219 1032.691406 470.445312 1032.082031 469.425781 C 1031.472656 468.40625 1030.886719 467.375 1030.328125 466.328125 C 1029.769531 465.277344 1029.238281 464.21875 1028.730469 463.144531 C 1028.222656 462.070312 1027.742188 460.984375 1027.289062 459.886719 C 1026.835938 458.789062 1026.410156 457.679688 1026.007812 456.5625 C 1025.609375 455.441406 1025.238281 454.3125 1024.894531 453.175781 C 1024.550781 452.039062 1024.234375 450.894531 1023.949219 449.742188 C 1023.660156 448.589844 1023.402344 447.433594 1023.167969 446.265625 C 1022.9375 445.101562 1022.738281 443.933594 1022.5625 442.757812 C 1022.390625 441.582031 1022.246094 440.402344 1022.128906 439.222656 C 1022.015625 438.039062 1021.929688 436.855469 1021.871094 435.667969 C 1021.8125 434.480469 1021.785156 433.296875 1021.785156 432.105469 C 1021.789062 430.917969 1021.816406 429.734375 1021.878906 428.546875 C 1021.9375 427.359375 1022.023438 426.175781 1022.140625 424.992188 C 1022.261719 423.8125 1022.40625 422.632812 1022.582031 421.457031 C 1022.757812 420.285156 1022.960938 419.113281 1023.195312 417.949219 C 1023.425781 416.785156 1023.6875 415.625 1023.976562 414.472656 C 1024.265625 413.324219 1024.585938 412.179688 1024.929688 411.042969 C 1025.277344 409.90625 1025.648438 408.777344 1026.050781 407.660156 C 1026.453125 406.542969 1026.878906 405.433594 1027.335938 404.339844 C 1027.789062 403.242188 1028.273438 402.15625 1028.78125 401.082031 C 1029.289062 400.007812 1029.824219 398.949219 1030.386719 397.902344 C 1030.945312 396.855469 1031.535156 395.824219 1032.144531 394.804688 C 1032.757812 393.785156 1033.390625 392.785156 1034.054688 391.796875 C 1034.714844 390.808594 1035.398438 389.839844 1036.105469 388.886719 C 1036.816406 387.933594 1037.546875 386.996094 1038.300781 386.078125 C 1039.054688 385.164062 1039.832031 384.265625 1040.628906 383.382812 C 1041.429688 382.503906 1042.25 381.644531 1043.089844 380.808594 C 1043.929688 379.96875 1044.789062 379.148438 1045.671875 378.351562 C 1046.550781 377.554688 1047.453125 376.78125 1048.371094 376.027344 C 1049.289062 375.277344 1050.226562 374.546875 1051.179688 373.839844 C 1052.136719 373.132812 1053.105469 372.449219 1054.09375 371.792969 C 1055.082031 371.132812 1056.085938 370.496094 1057.105469 369.886719 C 1058.125 369.277344 1059.160156 368.695312 1060.207031 368.136719 C 1061.253906 367.578125 1062.316406 367.042969 1063.390625 366.535156 C 1064.464844 366.03125 1065.550781 365.550781 1066.648438 365.097656 C 1067.746094 364.640625 1068.855469 364.214844 1069.972656 363.816406 C 1071.09375 363.417969 1072.21875 363.046875 1073.355469 362.703125 C 1074.496094 362.359375 1075.640625 362.042969 1076.792969 361.757812 C 1077.945312 361.46875 1079.101562 361.210938 1080.269531 360.980469 C 1081.433594 360.75 1082.601562 360.546875 1083.777344 360.375 C 1084.953125 360.199219 1086.132812 360.054688 1087.3125 359.941406 C 1088.496094 359.824219 1089.679688 359.738281 1090.867188 359.683594 C 1092.054688 359.625 1093.242188 359.597656 1094.429688 359.597656 C 1095.617188 359.597656 1096.804688 359.628906 1097.988281 359.6875 C 1099.175781 359.75 1100.359375 359.835938 1101.542969 359.953125 C 1102.722656 360.070312 1103.902344 360.21875 1105.078125 360.394531 C 1106.25 360.570312 1107.421875 360.773438 1108.585938 361.007812 C 1109.75 361.238281 1110.910156 361.5 1112.0625 361.789062 C 1113.210938 362.082031 1114.355469 362.398438 1115.492188 362.742188 C 1116.628906 363.089844 1117.757812 363.464844 1118.875 363.863281 C 1119.992188 364.265625 1121.101562 364.695312 1122.195312 365.148438 C 1123.292969 365.605469 1124.378906 366.089844 1125.453125 366.597656 C 1126.523438 367.105469 1127.585938 367.640625 1128.632812 368.203125 C 1129.679688 368.761719 1130.710938 369.347656 1131.730469 369.960938 C 1132.746094 370.574219 1133.75 371.207031 1134.738281 371.871094 C 1135.722656 372.53125 1136.695312 373.214844 1137.648438 373.921875 C 1138.601562 374.632812 1139.535156 375.363281 1140.453125 376.117188 C 1141.371094 376.871094 1142.269531 377.648438 1143.148438 378.449219 C 1144.027344 379.246094 1144.886719 380.066406 1145.726562 380.90625 C 1146.566406 381.746094 1147.382812 382.609375 1148.179688 383.488281 C 1148.976562 384.371094 1149.75 385.269531 1150.503906 386.1875 C 1151.257812 387.109375 1151.984375 388.042969 1152.691406 389 C 1153.398438 389.953125 1154.082031 390.925781 1154.738281 391.914062 C 1155.398438 392.902344 1156.035156 393.90625 1156.644531 394.925781 C 1157.253906 395.945312 1157.835938 396.980469 1158.394531 398.027344 C 1158.953125 399.074219 1159.488281 400.136719 1159.992188 401.210938 C 1160.5 402.285156 1160.980469 403.371094 1161.433594 404.46875 C 1161.886719 405.566406 1162.3125 406.675781 1162.710938 407.792969 C 1163.109375 408.914062 1163.480469 410.039062 1163.824219 411.175781 C 1164.167969 412.3125 1164.484375 413.457031 1164.773438 414.609375 C 1165.058594 415.765625 1165.320312 416.921875 1165.550781 418.085938 C 1165.78125 419.253906 1165.980469 420.421875 1166.152344 421.597656 C 1166.328125 422.773438 1166.472656 423.953125 1166.585938 425.132812 C 1166.703125 426.316406 1166.789062 427.5 1166.84375 428.6875 C 1166.902344 429.875 1166.929688 431.058594 1166.929688 432.25 C 1166.925781 433.433594 1166.894531 434.621094 1166.835938 435.808594 C 1166.773438 436.992188 1166.683594 438.175781 1166.566406 439.359375 C 1166.449219 440.539062 1166.300781 441.714844 1166.125 442.890625 C 1165.949219 444.066406 1165.746094 445.234375 1165.511719 446.398438 C 1165.277344 447.5625 1165.015625 448.71875 1164.726562 449.871094 C 1164.4375 451.023438 1164.117188 452.164062 1163.773438 453.300781 C 1163.425781 454.4375 1163.050781 455.5625 1162.652344 456.679688 C 1162.25 457.796875 1161.820312 458.902344 1161.363281 460 C 1160.910156 461.097656 1160.425781 462.179688 1159.917969 463.253906 C 1159.410156 464.324219 1158.875 465.386719 1158.3125 466.429688 C 1157.753906 467.476562 1157.167969 468.507812 1156.554688 469.527344 C 1155.941406 470.542969 1155.308594 471.546875 1154.648438 472.53125 C 1153.984375 473.519531 1153.300781 474.488281 1152.59375 475.441406 C 1151.886719 476.394531 1151.152344 477.328125 1150.398438 478.246094 C 1149.644531 479.164062 1148.871094 480.0625 1148.070312 480.941406 C 1147.273438 481.820312 1146.453125 482.679688 1145.613281 483.515625 C 1144.773438 484.355469 1143.914062 485.171875 1143.035156 485.96875 C 1142.152344 486.765625 1141.253906 487.539062 1140.335938 488.292969 C 1139.417969 489.046875 1138.480469 489.773438 1137.527344 490.480469 C 1136.574219 491.1875 1135.601562 491.871094 1134.613281 492.527344 C 1133.628906 493.1875 1132.625 493.820312 1131.605469 494.433594 C 1130.585938 495.042969 1129.554688 495.625 1128.507812 496.183594 C 1127.457031 496.742188 1126.398438 497.277344 1125.324219 497.785156 C 1124.25 498.289062 1123.167969 498.769531 1122.070312 499.222656 C 1120.972656 499.679688 1119.863281 500.105469 1118.746094 500.503906 C 1117.628906 500.902344 1116.5 501.277344 1115.367188 501.621094 C 1114.230469 501.964844 1113.085938 502.28125 1111.933594 502.566406 C 1110.78125 502.855469 1109.625 503.117188 1108.460938 503.347656 C 1107.292969 503.578125 1106.125 503.78125 1104.949219 503.953125 C 1103.777344 504.128906 1102.597656 504.273438 1101.417969 504.390625 C 1100.234375 504.503906 1099.050781 504.59375 1097.867188 504.652344 C 1096.679688 504.707031 1095.496094 504.738281 1094.308594 504.738281 Z M 1094.308594 379.734375 C 1092.589844 379.734375 1090.878906 379.820312 1089.167969 379.992188 C 1087.460938 380.160156 1085.765625 380.414062 1084.082031 380.75 C 1082.398438 381.085938 1080.734375 381.503906 1079.09375 382.003906 C 1077.453125 382.503906 1075.835938 383.082031 1074.253906 383.742188 C 1072.667969 384.398438 1071.117188 385.132812 1069.605469 385.945312 C 1068.089844 386.753906 1066.621094 387.636719 1065.195312 388.59375 C 1063.765625 389.546875 1062.390625 390.570312 1061.066406 391.660156 C 1059.738281 392.75 1058.46875 393.902344 1057.253906 395.117188 C 1056.042969 396.332031 1054.890625 397.601562 1053.804688 398.929688 C 1052.714844 400.257812 1051.695312 401.636719 1050.742188 403.0625 C 1049.789062 404.492188 1048.910156 405.960938 1048.101562 407.476562 C 1047.292969 408.992188 1046.558594 410.542969 1045.902344 412.128906 C 1045.246094 413.714844 1044.671875 415.328125 1044.171875 416.972656 C 1043.675781 418.613281 1043.261719 420.277344 1042.925781 421.960938 C 1042.59375 423.644531 1042.339844 425.339844 1042.171875 427.050781 C 1042.007812 428.757812 1041.921875 430.472656 1041.921875 432.1875 C 1041.921875 433.90625 1042.007812 435.617188 1042.175781 437.324219 C 1042.347656 439.035156 1042.597656 440.730469 1042.933594 442.414062 C 1043.269531 444.097656 1043.6875 445.757812 1044.183594 447.402344 C 1044.683594 449.042969 1045.261719 450.660156 1045.917969 452.246094 C 1046.578125 453.832031 1047.308594 455.378906 1048.121094 456.894531 C 1048.929688 458.40625 1049.8125 459.878906 1050.765625 461.304688 C 1051.71875 462.734375 1052.742188 464.109375 1053.828125 465.4375 C 1054.917969 466.761719 1056.070312 468.035156 1057.285156 469.246094 C 1058.5 470.460938 1059.769531 471.613281 1061.097656 472.703125 C 1062.421875 473.789062 1063.800781 474.8125 1065.226562 475.765625 C 1066.65625 476.71875 1068.125 477.601562 1069.640625 478.410156 C 1071.152344 479.21875 1072.703125 479.953125 1074.289062 480.609375 C 1075.875 481.265625 1077.488281 481.84375 1079.132812 482.34375 C 1080.773438 482.839844 1082.4375 483.257812 1084.121094 483.59375 C 1085.804688 483.929688 1087.5 484.179688 1089.210938 484.347656 C 1090.917969 484.515625 1092.628906 484.601562 1094.347656 484.601562 C 1096.0625 484.601562 1097.777344 484.519531 1099.484375 484.351562 C 1101.195312 484.183594 1102.890625 483.929688 1104.574219 483.597656 C 1106.257812 483.261719 1107.921875 482.847656 1109.5625 482.347656 C 1111.207031 481.851562 1112.820312 481.273438 1114.40625 480.617188 C 1115.992188 479.960938 1117.542969 479.226562 1119.058594 478.417969 C 1120.570312 477.609375 1122.042969 476.730469 1123.46875 475.777344 C 1124.898438 474.824219 1126.277344 473.800781 1127.601562 472.714844 C 1128.929688 471.625 1130.203125 470.476562 1131.417969 469.261719 C 1132.628906 468.046875 1133.78125 466.777344 1134.871094 465.453125 C 1135.960938 464.125 1136.984375 462.75 1137.9375 461.320312 C 1138.894531 459.894531 1139.777344 458.425781 1140.585938 456.910156 C 1141.394531 455.398438 1142.128906 453.847656 1142.789062 452.261719 C 1143.445312 450.679688 1144.023438 449.0625 1144.523438 447.421875 C 1145.023438 445.777344 1145.441406 444.117188 1145.777344 442.433594 C 1146.113281 440.75 1146.367188 439.054688 1146.535156 437.34375 C 1146.703125 435.636719 1146.789062 433.925781 1146.792969 432.207031 C 1146.792969 430.488281 1146.707031 428.773438 1146.539062 427.0625 C 1146.371094 425.355469 1146.117188 423.65625 1145.78125 421.96875 C 1145.445312 420.285156 1145.027344 418.621094 1144.53125 416.976562 C 1144.03125 415.332031 1143.453125 413.714844 1142.792969 412.125 C 1142.136719 410.539062 1141.402344 408.988281 1140.589844 407.472656 C 1139.78125 405.957031 1138.898438 404.484375 1137.941406 403.054688 C 1136.988281 401.625 1135.964844 400.246094 1134.875 398.917969 C 1133.785156 397.589844 1132.632812 396.316406 1131.414062 395.101562 C 1130.199219 393.886719 1128.929688 392.734375 1127.597656 391.644531 C 1126.269531 390.554688 1124.890625 389.53125 1123.460938 388.578125 C 1122.035156 387.621094 1120.5625 386.738281 1119.046875 385.929688 C 1117.53125 385.121094 1115.976562 384.386719 1114.390625 383.726562 C 1112.800781 383.070312 1111.183594 382.492188 1109.539062 381.992188 C 1107.894531 381.496094 1106.230469 381.078125 1104.546875 380.742188 C 1102.859375 380.40625 1101.160156 380.15625 1099.449219 379.988281 C 1097.742188 379.816406 1096.027344 379.734375 1094.308594 379.734375 Z M 1094.308594 379.734375 " fill-opacity="1" fill-rule="nonzero"/><path fill="#000000" d="M 926.039062 604.109375 L 514.378906 604.109375 C 469.203125 604.109375 430.027344 570.289062 408.441406 538.667969 C 407.0625 536.582031 406.347656 534.289062 406.296875 531.789062 C 406.296875 530.992188 406.375 530.203125 406.53125 529.421875 C 406.6875 528.640625 406.917969 527.882812 407.222656 527.144531 C 407.53125 526.410156 407.902344 525.710938 408.347656 525.046875 C 408.789062 524.382812 409.292969 523.769531 409.855469 523.207031 C 410.421875 522.644531 411.035156 522.140625 411.695312 521.699219 C 412.359375 521.253906 413.058594 520.878906 413.792969 520.574219 C 414.53125 520.269531 415.289062 520.039062 416.070312 519.882812 C 416.851562 519.726562 417.640625 519.648438 418.4375 519.648438 L 1022.472656 519.648438 C 1023.550781 519.648438 1024.609375 519.792969 1025.648438 520.078125 C 1026.691406 520.363281 1027.675781 520.777344 1028.605469 521.324219 C 1029.535156 521.871094 1030.378906 522.53125 1031.132812 523.300781 C 1031.886719 524.070312 1032.527344 524.929688 1033.054688 525.871094 C 1033.578125 526.8125 1033.972656 527.804688 1034.234375 528.851562 C 1034.496094 529.898438 1034.617188 530.960938 1034.597656 532.039062 C 1034.574219 533.117188 1034.414062 534.175781 1034.109375 535.210938 C 1033.808594 536.246094 1033.375 537.222656 1032.8125 538.144531 C 1032.671875 538.394531 1032.515625 538.632812 1032.347656 538.867188 C 1010.511719 570.398438 971.125 604.109375 926.039062 604.109375 Z M 434.496094 539.761719 C 453.675781 562.667969 482.574219 583.972656 514.417969 583.972656 L 926.039062 583.972656 C 957.734375 583.972656 986.691406 562.878906 1006.292969 539.761719 Z M 1022.472656 539.761719 Z M 1015.898438 527.230469 C 1015.761719 527.40625 1015.640625 527.597656 1015.535156 527.792969 C 1015.644531 527.597656 1015.765625 527.410156 1015.898438 527.230469 Z M 1015.898438 527.230469 " fill-opacity="1" fill-rule="nonzero"/><path fill="#000000" d="M 370.675781 755.359375 L 277.910156 755.359375 C 276.792969 755.355469 275.679688 755.300781 274.570312 755.191406 C 273.460938 755.082031 272.359375 754.917969 271.265625 754.699219 C 270.171875 754.480469 269.09375 754.210938 268.023438 753.886719 C 266.957031 753.5625 265.910156 753.183594 264.878906 752.757812 C 263.847656 752.332031 262.839844 751.855469 261.859375 751.328125 C 260.875 750.800781 259.917969 750.230469 258.992188 749.609375 C 258.0625 748.988281 257.167969 748.324219 256.308594 747.617188 C 255.445312 746.910156 254.621094 746.164062 253.832031 745.375 C 253.042969 744.585938 252.292969 743.761719 251.585938 742.898438 C 250.878906 742.035156 250.214844 741.140625 249.59375 740.214844 C 248.972656 739.289062 248.402344 738.332031 247.875 737.347656 C 247.347656 736.367188 246.871094 735.359375 246.445312 734.328125 C 246.015625 733.296875 245.640625 732.25 245.316406 731.183594 C 244.992188 730.117188 244.71875 729.035156 244.5 727.941406 C 244.28125 726.847656 244.117188 725.746094 244.007812 724.636719 C 243.898438 723.527344 243.839844 722.414062 243.839844 721.296875 L 243.839844 573.742188 C 243.839844 573.082031 243.902344 572.425781 244.03125 571.777344 C 244.160156 571.128906 244.351562 570.5 244.605469 569.890625 C 244.859375 569.277344 245.167969 568.699219 245.535156 568.148438 C 245.902344 567.601562 246.320312 567.089844 246.789062 566.625 C 247.253906 566.15625 247.765625 565.738281 248.3125 565.371094 C 248.863281 565.003906 249.445312 564.695312 250.054688 564.441406 C 250.664062 564.1875 251.292969 563.996094 251.941406 563.867188 C 252.589844 563.738281 253.246094 563.675781 253.90625 563.675781 C 254.570312 563.675781 255.222656 563.738281 255.871094 563.867188 C 256.519531 563.996094 257.148438 564.1875 257.761719 564.441406 C 258.371094 564.695312 258.953125 565.003906 259.5 565.371094 C 260.050781 565.738281 260.558594 566.15625 261.027344 566.625 C 261.492188 567.089844 261.910156 567.601562 262.277344 568.148438 C 262.644531 568.699219 262.957031 569.277344 263.210938 569.890625 C 263.460938 570.5 263.652344 571.128906 263.78125 571.777344 C 263.910156 572.425781 263.976562 573.082031 263.976562 573.742188 C 263.972656 575.148438 264.003906 576.554688 264.074219 577.960938 C 264.140625 579.367188 264.242188 580.769531 264.375 582.171875 C 264.511719 583.570312 264.683594 584.964844 264.886719 586.359375 C 265.09375 587.75 265.332031 589.136719 265.605469 590.515625 C 265.875 591.898438 266.183594 593.269531 266.523438 594.636719 C 266.863281 596 267.238281 597.355469 267.644531 598.703125 C 268.050781 600.050781 268.492188 601.386719 268.964844 602.710938 C 269.4375 604.035156 269.945312 605.347656 270.480469 606.648438 C 271.019531 607.949219 271.589844 609.234375 272.1875 610.507812 C 272.789062 611.78125 273.421875 613.035156 274.085938 614.277344 C 274.746094 615.519531 275.441406 616.742188 276.164062 617.949219 C 276.886719 619.15625 277.636719 620.34375 278.417969 621.515625 C 279.199219 622.683594 280.011719 623.835938 280.847656 624.964844 C 281.6875 626.097656 282.550781 627.203125 283.445312 628.292969 C 284.335938 629.378906 285.257812 630.445312 286.199219 631.488281 C 287.144531 632.53125 288.117188 633.546875 289.113281 634.542969 C 290.105469 635.535156 291.125 636.507812 292.167969 637.449219 C 293.210938 638.394531 294.277344 639.3125 295.363281 640.207031 C 296.453125 641.097656 297.5625 641.960938 298.691406 642.800781 C 299.824219 643.636719 300.972656 644.445312 302.144531 645.226562 C 303.316406 646.007812 304.503906 646.757812 305.710938 647.480469 C 306.917969 648.203125 308.144531 648.894531 309.386719 649.558594 C 310.625 650.21875 311.882812 650.851562 313.15625 651.449219 C 314.429688 652.050781 315.714844 652.621094 317.015625 653.15625 C 318.316406 653.691406 319.628906 654.199219 320.957031 654.667969 C 322.28125 655.140625 323.617188 655.582031 324.964844 655.988281 C 326.3125 656.394531 327.667969 656.765625 329.03125 657.105469 C 330.398438 657.445312 331.769531 657.75 333.152344 658.023438 C 334.53125 658.296875 335.917969 658.535156 337.308594 658.738281 C 338.703125 658.941406 340.097656 659.109375 341.5 659.246094 C 342.898438 659.382812 344.300781 659.480469 345.707031 659.546875 C 347.113281 659.613281 348.519531 659.644531 349.925781 659.640625 L 394.730469 659.640625 C 395.390625 659.640625 396.042969 659.707031 396.691406 659.835938 C 397.339844 659.964844 397.972656 660.15625 398.582031 660.410156 C 399.191406 660.660156 399.773438 660.972656 400.324219 661.339844 C 400.871094 661.707031 401.378906 662.125 401.847656 662.589844 C 402.316406 663.058594 402.734375 663.566406 403.101562 664.117188 C 403.46875 664.667969 403.777344 665.246094 404.03125 665.859375 C 404.285156 666.46875 404.476562 667.097656 404.605469 667.746094 C 404.734375 668.394531 404.796875 669.050781 404.796875 669.710938 L 404.796875 721.296875 C 404.796875 722.414062 404.738281 723.527344 404.628906 724.640625 C 404.519531 725.75 404.355469 726.851562 404.132812 727.949219 C 403.914062 729.042969 403.644531 730.125 403.316406 731.191406 C 402.992188 732.261719 402.617188 733.308594 402.1875 734.339844 C 401.757812 735.371094 401.28125 736.378906 400.753906 737.363281 C 400.226562 738.347656 399.652344 739.304688 399.03125 740.230469 C 398.410156 741.15625 397.746094 742.054688 397.035156 742.914062 C 396.328125 743.777344 395.578125 744.601562 394.789062 745.390625 C 393.996094 746.179688 393.171875 746.929688 392.308594 747.636719 C 391.445312 748.34375 390.546875 749.007812 389.617188 749.625 C 388.691406 750.246094 387.734375 750.820312 386.75 751.34375 C 385.761719 751.871094 384.753906 752.347656 383.722656 752.773438 C 382.691406 753.199219 381.640625 753.574219 380.574219 753.898438 C 379.503906 754.21875 378.421875 754.492188 377.328125 754.707031 C 376.230469 754.925781 375.128906 755.085938 374.019531 755.195312 C 372.90625 755.304688 371.792969 755.359375 370.675781 755.359375 Z M 263.976562 635.960938 L 263.976562 721.269531 C 263.976562 722.183594 264.066406 723.089844 264.246094 723.984375 C 264.425781 724.882812 264.691406 725.75 265.042969 726.597656 C 265.390625 727.441406 265.820312 728.242188 266.332031 729.003906 C 266.839844 729.761719 267.417969 730.464844 268.0625 731.113281 C 268.710938 731.757812 269.414062 732.335938 270.171875 732.84375 C 270.933594 733.351562 271.738281 733.78125 272.582031 734.128906 C 273.425781 734.480469 274.296875 734.746094 275.191406 734.921875 C 276.089844 735.101562 276.996094 735.191406 277.910156 735.191406 L 370.675781 735.191406 C 371.589844 735.191406 372.496094 735.101562 373.390625 734.921875 C 374.289062 734.742188 375.160156 734.476562 376.003906 734.128906 C 376.847656 733.777344 377.648438 733.347656 378.410156 732.839844 C 379.171875 732.332031 379.875 731.753906 380.519531 731.109375 C 381.167969 730.460938 381.746094 729.761719 382.253906 729 C 382.761719 728.242188 383.191406 727.4375 383.542969 726.59375 C 383.894531 725.75 384.15625 724.878906 384.339844 723.984375 C 384.519531 723.085938 384.609375 722.183594 384.609375 721.269531 L 384.609375 679.777344 L 349.925781 679.777344 C 346.453125 679.789062 342.984375 679.628906 339.523438 679.300781 C 336.066406 678.96875 332.632812 678.464844 329.222656 677.796875 C 325.8125 677.125 322.445312 676.285156 319.117188 675.28125 C 315.789062 674.277344 312.523438 673.109375 309.308594 671.785156 C 306.097656 670.457031 302.960938 668.972656 299.898438 667.332031 C 296.832031 665.695312 293.855469 663.910156 290.96875 661.976562 C 288.082031 660.042969 285.292969 657.972656 282.613281 655.765625 C 279.929688 653.558594 277.359375 651.222656 274.910156 648.757812 C 270.933594 644.777344 267.289062 640.511719 263.976562 635.960938 Z M 263.976562 635.960938 " fill-opacity="1" fill-rule="nonzero"/><path fill="#000000" d="M 1163 755.359375 L 1070.234375 755.359375 C 1069.121094 755.355469 1068.007812 755.300781 1066.898438 755.191406 C 1065.789062 755.082031 1064.6875 754.914062 1063.59375 754.695312 C 1062.5 754.480469 1061.417969 754.207031 1060.351562 753.882812 C 1059.285156 753.558594 1058.238281 753.183594 1057.207031 752.753906 C 1056.175781 752.328125 1055.167969 751.851562 1054.1875 751.324219 C 1053.203125 750.796875 1052.246094 750.226562 1051.320312 749.605469 C 1050.394531 748.984375 1049.5 748.324219 1048.636719 747.613281 C 1047.777344 746.90625 1046.949219 746.160156 1046.160156 745.371094 C 1045.375 744.582031 1044.625 743.757812 1043.917969 742.894531 C 1043.210938 742.03125 1042.546875 741.140625 1041.925781 740.210938 C 1041.308594 739.285156 1040.734375 738.328125 1040.207031 737.347656 C 1039.683594 736.363281 1039.203125 735.355469 1038.777344 734.328125 C 1038.351562 733.296875 1037.972656 732.246094 1037.648438 731.179688 C 1037.324219 730.113281 1037.054688 729.035156 1036.835938 727.941406 C 1036.617188 726.847656 1036.453125 725.746094 1036.339844 724.636719 C 1036.230469 723.527344 1036.175781 722.414062 1036.175781 721.296875 L 1036.175781 669.710938 C 1036.175781 669.050781 1036.238281 668.394531 1036.367188 667.746094 C 1036.496094 667.097656 1036.6875 666.46875 1036.941406 665.859375 C 1037.195312 665.246094 1037.503906 664.667969 1037.871094 664.117188 C 1038.238281 663.566406 1038.65625 663.058594 1039.121094 662.589844 C 1039.589844 662.125 1040.097656 661.707031 1040.648438 661.339844 C 1041.199219 660.972656 1041.777344 660.660156 1042.390625 660.410156 C 1043 660.15625 1043.628906 659.964844 1044.277344 659.835938 C 1044.925781 659.707031 1045.582031 659.640625 1046.242188 659.640625 L 1091.035156 659.640625 C 1092.441406 659.640625 1093.84375 659.605469 1095.25 659.535156 C 1096.652344 659.464844 1098.054688 659.359375 1099.453125 659.21875 C 1100.851562 659.082031 1102.246094 658.910156 1103.632812 658.699219 C 1105.023438 658.492188 1106.410156 658.253906 1107.785156 657.976562 C 1109.164062 657.703125 1110.535156 657.394531 1111.898438 657.050781 C 1113.261719 656.707031 1114.617188 656.332031 1115.960938 655.921875 C 1117.304688 655.515625 1118.640625 655.074219 1119.960938 654.597656 C 1121.285156 654.125 1122.59375 653.617188 1123.894531 653.078125 C 1125.191406 652.542969 1126.476562 651.972656 1127.746094 651.371094 C 1129.015625 650.769531 1130.269531 650.136719 1131.511719 649.472656 C 1132.75 648.808594 1133.972656 648.117188 1135.175781 647.394531 C 1136.382812 646.671875 1137.570312 645.917969 1138.738281 645.136719 C 1139.90625 644.355469 1141.054688 643.546875 1142.183594 642.710938 C 1143.3125 641.871094 1144.417969 641.007812 1145.503906 640.117188 C 1146.589844 639.226562 1147.65625 638.308594 1148.695312 637.363281 C 1149.738281 636.417969 1150.753906 635.449219 1151.75 634.457031 C 1152.742188 633.460938 1153.710938 632.445312 1154.65625 631.402344 C 1155.597656 630.363281 1156.515625 629.300781 1157.410156 628.210938 C 1158.300781 627.125 1159.164062 626.019531 1160.003906 624.890625 C 1160.839844 623.761719 1161.648438 622.613281 1162.429688 621.445312 C 1163.210938 620.277344 1163.964844 619.089844 1164.6875 617.882812 C 1165.410156 616.679688 1166.101562 615.457031 1166.765625 614.21875 C 1167.429688 612.976562 1168.0625 611.722656 1168.664062 610.453125 C 1169.265625 609.183594 1169.832031 607.898438 1170.371094 606.601562 C 1170.910156 605.304688 1171.417969 603.992188 1171.890625 602.667969 C 1172.367188 601.347656 1172.808594 600.011719 1173.214844 598.667969 C 1173.625 597.324219 1174 595.96875 1174.34375 594.605469 C 1174.6875 593.242188 1174.996094 591.871094 1175.269531 590.496094 C 1175.546875 589.117188 1175.785156 587.734375 1175.992188 586.34375 C 1176.203125 584.953125 1176.375 583.558594 1176.511719 582.160156 C 1176.652344 580.761719 1176.757812 579.359375 1176.828125 577.957031 C 1176.898438 576.554688 1176.933594 575.148438 1176.933594 573.742188 C 1176.933594 573.082031 1177 572.425781 1177.128906 571.777344 C 1177.257812 571.128906 1177.449219 570.5 1177.703125 569.890625 C 1177.953125 569.277344 1178.265625 568.699219 1178.632812 568.148438 C 1179 567.601562 1179.417969 567.089844 1179.882812 566.625 C 1180.351562 566.15625 1180.859375 565.738281 1181.410156 565.371094 C 1181.960938 565.003906 1182.539062 564.695312 1183.152344 564.441406 C 1183.761719 564.1875 1184.390625 563.996094 1185.039062 563.867188 C 1185.6875 563.738281 1186.34375 563.675781 1187.003906 563.675781 C 1187.664062 563.675781 1188.320312 563.738281 1188.96875 563.867188 C 1189.617188 563.996094 1190.246094 564.1875 1190.855469 564.441406 C 1191.46875 564.695312 1192.046875 565.003906 1192.597656 565.371094 C 1193.148438 565.738281 1193.65625 566.15625 1194.121094 566.625 C 1194.589844 567.089844 1195.007812 567.601562 1195.375 568.148438 C 1195.742188 568.699219 1196.050781 569.277344 1196.304688 569.890625 C 1196.558594 570.5 1196.75 571.128906 1196.878906 571.777344 C 1197.007812 572.425781 1197.070312 573.082031 1197.070312 573.742188 L 1197.070312 721.296875 C 1197.070312 722.414062 1197.015625 723.527344 1196.902344 724.636719 C 1196.792969 725.746094 1196.628906 726.847656 1196.410156 727.941406 C 1196.191406 729.035156 1195.921875 730.117188 1195.59375 731.183594 C 1195.269531 732.25 1194.894531 733.296875 1194.46875 734.328125 C 1194.039062 735.359375 1193.5625 736.367188 1193.035156 737.347656 C 1192.511719 738.332031 1191.9375 739.289062 1191.316406 740.214844 C 1190.695312 741.140625 1190.03125 742.035156 1189.324219 742.898438 C 1188.617188 743.761719 1187.867188 744.585938 1187.082031 745.375 C 1186.292969 746.164062 1185.464844 746.910156 1184.605469 747.617188 C 1183.742188 748.324219 1182.847656 748.988281 1181.917969 749.609375 C 1180.992188 750.230469 1180.035156 750.800781 1179.054688 751.328125 C 1178.070312 751.855469 1177.0625 752.332031 1176.03125 752.757812 C 1175.003906 753.183594 1173.953125 753.5625 1172.886719 753.886719 C 1171.820312 754.210938 1170.738281 754.480469 1169.644531 754.699219 C 1168.550781 754.917969 1167.449219 755.082031 1166.339844 755.191406 C 1165.230469 755.300781 1164.117188 755.355469 1163 755.359375 Z M 1056.28125 679.777344 L 1056.28125 721.296875 C 1056.28125 722.210938 1056.371094 723.117188 1056.550781 724.015625 C 1056.726562 724.910156 1056.992188 725.78125 1057.34375 726.625 C 1057.691406 727.46875 1058.121094 728.273438 1058.628906 729.03125 C 1059.136719 729.792969 1059.714844 730.496094 1060.359375 731.140625 C 1061.007812 731.789062 1061.710938 732.363281 1062.472656 732.871094 C 1063.230469 733.378906 1064.03125 733.808594 1064.878906 734.160156 C 1065.722656 734.511719 1066.59375 734.773438 1067.488281 734.953125 C 1068.386719 735.132812 1069.289062 735.222656 1070.203125 735.222656 L 1162.972656 735.222656 C 1163.886719 735.222656 1164.792969 735.132812 1165.6875 734.953125 C 1166.585938 734.773438 1167.453125 734.511719 1168.300781 734.160156 C 1169.144531 733.808594 1169.945312 733.382812 1170.707031 732.875 C 1171.46875 732.367188 1172.171875 731.789062 1172.816406 731.140625 C 1173.464844 730.496094 1174.042969 729.792969 1174.550781 729.03125 C 1175.058594 728.273438 1175.488281 727.46875 1175.839844 726.625 C 1176.191406 725.78125 1176.453125 724.910156 1176.632812 724.015625 C 1176.8125 723.117188 1176.902344 722.214844 1176.90625 721.296875 L 1176.90625 635.851562 C 1174.457031 639.238281 1171.820312 642.472656 1168.992188 645.546875 C 1166.164062 648.621094 1163.164062 651.519531 1159.992188 654.242188 C 1156.820312 656.960938 1153.5 659.484375 1150.03125 661.8125 C 1146.558594 664.140625 1142.964844 666.257812 1139.246094 668.160156 C 1135.523438 670.0625 1131.703125 671.738281 1127.785156 673.1875 C 1123.867188 674.636719 1119.875 675.851562 1115.8125 676.832031 C 1111.75 677.808594 1107.644531 678.546875 1103.496094 679.039062 C 1099.347656 679.53125 1095.183594 679.777344 1091.003906 679.777344 Z M 1056.28125 679.777344 " fill-opacity="1" fill-rule="nonzero"/><g clip-path="url(#0a6c5586b2)"><path fill="#000000" d="M 250.199219 431.277344 L 250.199219 591.308594 L 256.933594 591.308594 L 256.933594 431.277344 Z M 250.199219 431.277344 " fill-opacity="1" fill-rule="nonzero"/></g></svg>