<svg xmlns="http://www.w3.org/2000/svg" xmlns:xlink="http://www.w3.org/1999/xlink" width="1920" zoomAndPan="magnify" viewBox="0 0 1440 809.999993" height="1080" preserveAspectRatio="xMidYMid meet" version="1.0"><defs><clipPath id="73bfd1fe16"><path d="M 324.25 54 L 1115.308594 54 L 1115.308594 754.925781 L 324.25 754.925781 Z M 324.25 54 " clip-rule="nonzero"/></clipPath></defs><g clip-path="url(#73bfd1fe16)"><path fill="#000000" d="M 719.667969 754.585938 L 711.285156 748.894531 C 710.335938 748.261719 614.011719 682.460938 519.113281 591.515625 C 463.121094 537.738281 418.359375 485.859375 386.09375 437.144531 C 345.125 374.824219 324.25 317.09375 324.25 265.847656 C 324.25 149.121094 419.308594 54.0625 536.035156 54.0625 C 579.375 54.0625 621.289062 67.347656 657.035156 92.652344 C 682.972656 111 704.167969 134.410156 719.667969 161.296875 C 735.167969 134.25 756.363281 110.84375 782.304688 92.652344 C 818.050781 67.347656 859.964844 54.0625 903.300781 54.0625 C 1020.03125 54.0625 1115.089844 149.121094 1115.089844 265.847656 L 1115.089844 266.003906 C 1114.613281 316.9375 1093.578125 374.191406 1052.453125 436.351562 C 1020.1875 485.070312 975.585938 536.949219 919.59375 590.882812 C 824.851562 682.144531 729 748.261719 728.050781 748.894531 Z M 536.035156 83.636719 C 435.597656 83.636719 353.824219 165.410156 353.824219 265.847656 C 353.824219 311.242188 372.964844 363.277344 410.765625 420.535156 C 441.609375 467.355469 484.945312 517.652344 539.355469 569.847656 C 616.386719 643.710938 694.519531 700.808594 719.667969 718.523438 C 744.816406 700.652344 822.476562 643.238281 899.347656 569.214844 C 953.597656 516.859375 996.777344 466.722656 1027.78125 419.902344 C 1065.582031 362.648438 1085.035156 310.925781 1085.351562 265.847656 C 1085.351562 165.410156 1003.582031 83.796875 903.144531 83.796875 C 828.648438 83.796875 760.476562 130.929688 733.269531 201.15625 L 719.511719 236.902344 L 705.90625 201.15625 C 678.703125 130.929688 610.53125 83.636719 536.035156 83.636719 Z M 536.035156 83.636719 " fill-opacity="1" fill-rule="nonzero"/></g></svg>